<svg width="380" height="317" viewBox="0 0 380 317" fill="none" xmlns="http://www.w3.org/2000/svg">
<path d="M105.9 211C93.5 208.8 81.6 197.9 78 185.3L76.7 181.2L58 180.8L39.2 180.5L35.3 177.4C26.9 170.6 25.6 162.6 30.4 147.5C37.5 125.2 52.5 111.9 79 104.5C96.7 99.5001 101.7 95.7001 125.4 69.6001C144 49.2001 163.6 39.6001 197.5 34.3001C207.4 32.8001 215.4 32.5001 243.6 32.5001C286.4 32.5001 284.6 31.7001 279.5 49.4001C273.2 71.2001 258.6 91.3001 239 105.2C218.1 119.9 189.9 128.3 155.9 129.7C141.3 130.3 141.2 130.3 140 128C138.1 124.5 139.4 116 143 108.5C146.4 101.4 155.3 91.2001 163 85.5001C173.9 77.5001 195.8 68.8001 213.8 65.4001C222.6 63.7001 223 63.7001 225 65.5001C227.5 67.7001 227.6 71.2001 225.3 73.2001C224.3 74.0001 218.2 75.9001 211.7 77.3001C205.2 78.7001 198.5 80.6001 196.8 81.4001C195.1 82.3001 193 83.0001 192.2 83.0001C189.3 83.0001 169.6 94.2001 164.1 98.9001C158.8 103.5 153 111.8 151.5 116.8L150.8 119.1L159.7 118.5C181.4 116.9 200.5 112.3 216.5 104.6C242.4 92.2001 260.1 72.9001 268 48.6001C269 45.4001 269 44.6001 267.9 43.9001C265.6 42.4001 222.6 42.9001 208.8 44.5001C186 47.2001 174.1 50.4001 158.6 58.2001C145.5 64.8001 139.7 69.8001 122.2 89.8001C109.2 104.6 100.4 110 80.9 115.5C62.7 120.6 51.2 129.2 44.8 142.3C38.5 155.2 37.1 163.6 40.9 167.3C42.9 169.4 44.1 169.5 60 169.8C74.7 170.1 77 169.9 77 168.6C77 164.8 81.5 155.6 85.7 151C88.8 147.5 92.5 144.9 97.7 142.4C104.7 139 105.5 138.8 113.8 139.2C128.6 139.7 138.8 146.2 145.8 159.5C148.2 164 148.5 165.5 148.5 175C148.5 187.7 146.6 192.5 138 201.1C129.7 209.5 117.7 213.2 105.9 211ZM122.7 198.4C127.9 196.5 135.5 188.4 137 183.2C142.6 163 124.7 145.2 104.8 151.2C99.5 152.8 92.7 158.9 90 164.7C84.6 176.1 89.5 191.6 100.2 197.1C107.8 201 114.3 201.3 122.7 198.4Z" fill="currentColor"/>
<path d="M110.3 185.3C109.1 185.1 107 183.7 105.6 182.3C103.5 180.3 103 178.8 103 175C103 170.8 103.4 169.8 106.1 167.6C113 161.8 123 166.1 123 174.9C123 181.6 117 186.5 110.3 185.3Z" fill="currentColor"/>
<path d="M251.9 211C239.7 208.9 227.6 197.8 223.9 185.3L222.7 181H192.3C163.3 181 161.9 180.9 160 179C157.6 176.6 157.4 173.7 159.6 171.6C160.9 170.2 165.3 170 191.9 170H222.6L223.8 165.8C226.8 154.6 235.6 145.2 246.7 141C255.1 137.8 266.3 138.4 274.5 142.4C282.1 146.1 289.9 154.1 292.3 160.6C296.2 171 294.6 170 306.7 170C312.7 170 318.1 169.6 318.9 169.1C319.9 168.4 320.2 166.2 320.1 160.3C319.7 144.5 314.3 127.2 305.7 114.3C300.3 106.2 297.7 103.6 288.6 97.3C280.6 91.8 279.5 90.3 280.4 86.7C281.2 83.3 285.1 82.2 289.4 84.2C300.7 89.7 313.5 103.3 320.5 117.5C327.3 131.3 330.1 143.3 330.7 162.1C331.4 182.1 332.6 181 310.9 181H295.3L294 185.3C290 198.8 278.5 208.7 264.2 211.1C257.9 212.1 258.4 212.1 251.9 211ZM269.5 198C289.3 189.5 288.5 159.6 268.3 152C258.3 148.3 249.7 149.8 242 156.7C236.5 161.7 234 167.5 234 175.6C234 193.9 252.2 205.5 269.5 198Z" fill="currentColor"/>
<path d="M256.5 185.1C248.6 182.6 246.2 173.6 251.9 167.9C258.5 161.4 269 165.9 269 175.3C269 178.8 268.4 180.3 266.4 182.4C264.9 183.8 263.2 185 262.4 185C261.7 185 260.6 185.2 259.8 185.4C259.1 185.6 257.6 185.5 256.5 185.1Z" fill="currentColor"/>
<path d="M83.6355 243.902V283H75.4645V250.622H59.6573V283H51.4864V243.902H83.6355ZM127.435 263.451C127.435 267.715 126.627 271.342 125.01 274.333C123.407 277.324 121.218 279.608 118.443 281.186C115.681 282.752 112.576 283.535 109.127 283.535C105.652 283.535 102.534 282.745 99.772 281.167C97.0102 279.589 94.8275 277.305 93.2239 274.314C91.6202 271.323 90.8184 267.702 90.8184 263.451C90.8184 259.187 91.6202 255.56 93.2239 252.569C94.8275 249.578 97.0102 247.3 99.772 245.735C102.534 244.156 105.652 243.367 109.127 243.367C112.576 243.367 115.681 244.156 118.443 245.735C121.218 247.3 123.407 249.578 125.01 252.569C126.627 255.56 127.435 259.187 127.435 263.451ZM119.054 263.451C119.054 260.689 118.64 258.36 117.813 256.464C116.998 254.567 115.847 253.129 114.358 252.149C112.868 251.169 111.125 250.679 109.127 250.679C107.128 250.679 105.385 251.169 103.896 252.149C102.407 253.129 101.248 254.567 100.421 256.464C99.6066 258.36 99.1993 260.689 99.1993 263.451C99.1993 266.213 99.6066 268.542 100.421 270.438C101.248 272.335 102.407 273.773 103.896 274.753C105.385 275.733 107.128 276.223 109.127 276.223C111.125 276.223 112.868 275.733 114.358 274.753C115.847 273.773 116.998 272.335 117.813 270.438C118.64 268.542 119.054 266.213 119.054 263.451ZM166.795 243.902V283H158.625V250.622H142.817V283H134.646V243.902H166.795ZM178.885 283.535V276.815H181.004C182.06 276.815 182.913 276.687 183.562 276.433C184.211 276.165 184.727 275.777 185.108 275.268C185.503 274.746 185.834 274.097 186.101 273.321L186.578 272.042L172.375 243.902H180.928L190.129 263.145L197.823 243.902H206.261L192.783 275.325C192.134 276.776 191.364 278.125 190.473 279.373C189.595 280.62 188.468 281.625 187.094 282.389C185.719 283.153 183.963 283.535 181.825 283.535H178.885ZM211.712 250.717V243.902H243.823V250.717H231.853V283H223.682V250.717H211.712ZM272.764 283L260.203 266.334H257.377V283H249.111V243.902H257.377V259.518H259.038L272.02 243.902H282.31L267.056 262.038L283.016 283H272.764ZM287.173 243.902H295.42V268.491H295.745L312.64 243.902H319.876V283H311.61V258.392H311.323L294.332 283H287.173V243.902Z" fill="currentColor"/>
</svg>
