<?xml version="1.0" encoding="utf-8"?>
<!-- Generator: Adobe Illustrator 27.5.0, SVG Export Plug-In . SVG Version: 6.00 Build 0)  -->
<svg version="1.1" xmlns="http://www.w3.org/2000/svg" xmlns:xlink="http://www.w3.org/1999/xlink" x="0px" y="0px"
	 viewBox="0 0 750 500" style="enable-background:new 0 0 750 500;" xml:space="preserve">
<g id="Background_complete">
	<g>
		<g>
			<g>
				<g>
					<g>
						<g>
							<path style="fill:#E0E0E0;" d="M673.734,319.386H492.988c-3.232,0-5.862-2.63-5.862-5.862V50.25
								c0-3.232,2.63-5.862,5.862-5.862h180.746c3.232,0,5.862,2.629,5.862,5.862v263.273
								C679.596,316.756,676.966,319.386,673.734,319.386z M492.988,44.638c-3.095,0-5.612,2.518-5.612,5.612v263.273
								c0,3.095,2.518,5.612,5.612,5.612h180.746c3.095,0,5.612-2.517,5.612-5.612V50.25c0-3.094-2.518-5.612-5.612-5.612H492.988z"
								/>
						</g>
					</g>
					<g>
						<g>
							<path style="fill:#E0E0E0;" d="M465.306,319.386H284.56c-3.232,0-5.862-2.63-5.862-5.862V50.25
								c0-3.232,2.629-5.862,5.862-5.862h180.747c3.232,0,5.862,2.629,5.862,5.862v263.273
								C471.168,316.756,468.538,319.386,465.306,319.386z M284.56,44.638c-3.094,0-5.612,2.518-5.612,5.612v263.273
								c0,3.095,2.518,5.612,5.612,5.612h180.747c3.095,0,5.612-2.517,5.612-5.612V50.25c0-3.094-2.518-5.612-5.612-5.612H284.56z"
								/>
						</g>
					</g>
				</g>
				<g>
					<g>
						<g>
							<path style="fill:#E0E0E0;" d="M257.012,319.386H76.266c-3.232,0-5.862-2.63-5.862-5.862V50.25
								c0-3.232,2.629-5.862,5.862-5.862h180.746c3.232,0,5.862,2.629,5.862,5.862v263.273
								C262.875,316.756,260.245,319.386,257.012,319.386z M76.266,44.638c-3.094,0-5.612,2.518-5.612,5.612v263.273
								c0,3.095,2.518,5.612,5.612,5.612h180.746c3.095,0,5.612-2.517,5.612-5.612V50.25c0-3.094-2.518-5.612-5.612-5.612H76.266z"
								/>
						</g>
					</g>
				</g>
			</g>
			<g>
				<g>
					<rect y="380.455" style="fill:#E0E0E0;" width="750" height="0.12"/>
				</g>
			</g>
		</g>
		<g>
			<rect x="653.626" y="409.831" style="fill:#EBEBEB;" width="55.729" height="0.421"/>
			<rect x="495.044" y="414.397" style="fill:#EBEBEB;" width="14.627" height="0.421"/>
			<rect x="40.645" y="397.034" style="fill:#EBEBEB;" width="72.674" height="0.421"/>
			<rect x="128.299" y="397.034" style="fill:#EBEBEB;" width="10.656" height="0.421"/>
			<rect x="173.586" y="404.138" style="fill:#EBEBEB;" width="157.613" height="0.421"/>
		</g>
	</g>
	<g>
		<g>
			<path style="fill:#E6E6E6;" d="M332.311,77.262c-2.14-1.617-5.261-1.8-7.575-0.444c-3.071-6.207-11.63-8.946-17.734-5.676
				c-1.592-6.688-8.182-11.829-15.057-11.746c-6.874,0.083-13.338,5.38-14.769,12.105c-0.228,1.068-0.378,2.239-1.142,3.02
				c-1.242,1.268-3.315,0.843-5.084,0.704c-5.567-0.434-11.169,3.474-12.683,8.85l76.669-0.279
				C335.606,81.2,334.451,78.879,332.311,77.262z"/>
		</g>
	</g>
	<g>
		<g>
			<path style="fill:#E6E6E6;" d="M411.348,111.774c-1.357-1.025-3.336-1.141-4.803-0.282c-1.948-3.935-7.375-5.672-11.245-3.599
				c-1.01-4.241-5.188-7.5-9.547-7.448c-4.359,0.052-8.458,3.412-9.365,7.676c-0.144,0.677-0.24,1.42-0.724,1.915
				c-0.787,0.804-2.102,0.534-3.224,0.447c-3.53-0.275-7.082,2.203-8.042,5.611l48.615-0.177
				C413.437,114.271,412.704,112.799,411.348,111.774z"/>
		</g>
	</g>
	<g>
		<g>
			<path style="fill:#F5F5F5;" d="M553.632,67.415c-1.357-1.025-3.336-1.141-4.803-0.282c-1.948-3.935-7.375-5.672-11.245-3.599
				c-1.01-4.241-5.188-7.5-9.547-7.448c-4.359,0.052-8.458,3.412-9.365,7.676c-0.144,0.678-0.24,1.42-0.724,1.915
				c-0.787,0.804-2.102,0.534-3.224,0.447c-3.53-0.275-7.082,2.203-8.042,5.611l48.615-0.177
				C555.721,69.912,554.989,68.44,553.632,67.415z"/>
		</g>
	</g>
	<g>
		<g>
			<path style="fill:#E6E6E6;" d="M119.174,94.65c-2.14-1.617-5.261-1.8-7.575-0.444c-3.071-6.207-11.63-8.946-17.734-5.676
				c-1.592-6.688-8.182-11.829-15.056-11.746c-6.875,0.083-13.339,5.38-14.77,12.105c-0.227,1.069-0.378,2.239-1.142,3.02
				c-1.242,1.268-3.315,0.843-5.084,0.704c-5.567-0.434-11.169,3.474-12.684,8.85l76.669-0.279
				C122.469,98.588,121.314,96.266,119.174,94.65z"/>
		</g>
	</g>
	<g>
		<g>
			<path style="fill:#F5F5F5;" d="M215.249,134.449c-1.452-1.097-3.57-1.221-5.141-0.301c-2.084-4.212-7.892-6.071-12.035-3.851
				c-1.081-4.538-5.552-8.027-10.217-7.971c-4.665,0.056-9.051,3.651-10.022,8.214c-0.154,0.725-0.257,1.52-0.775,2.049
				c-0.843,0.861-2.249,0.572-3.45,0.478c-3.778-0.295-7.579,2.358-8.607,6.005l52.028-0.189
				C217.485,137.121,216.701,135.546,215.249,134.449z"/>
		</g>
	</g>
	<g>
		<g>
			<path style="fill:#F5F5F5;" d="M163.123,222.363c-1.452-1.097-3.57-1.221-5.141-0.301c-2.084-4.212-7.892-6.07-12.035-3.852
				c-1.081-4.538-5.552-8.027-10.217-7.971c-4.665,0.056-9.051,3.651-10.023,8.214c-0.154,0.725-0.257,1.52-0.775,2.049
				c-0.843,0.861-2.249,0.572-3.45,0.478c-3.778-0.295-7.579,2.358-8.607,6.005l52.028-0.189
				C165.359,225.035,164.575,223.46,163.123,222.363z"/>
		</g>
	</g>
	<g>
		<g>
			<path style="fill:#F5F5F5;" d="M700.101,109.659c-1.452-1.097-3.57-1.221-5.141-0.302c-2.084-4.212-7.892-6.07-12.035-3.851
				c-1.081-4.538-5.552-8.027-10.217-7.971c-4.665,0.056-9.051,3.651-10.022,8.214c-0.154,0.725-0.256,1.52-0.775,2.049
				c-0.843,0.861-2.249,0.572-3.45,0.478c-3.778-0.295-7.579,2.358-8.607,6.005l52.028-0.189
				C702.337,112.331,701.553,110.756,700.101,109.659z"/>
		</g>
	</g>
	<g id="freepik--background-complete--inject-481_00000094613527366731375080000002593904380488357262_">
		<polygon style="fill:#EBEBEB;" points="667.089,222.982 666.246,178.765 640.359,178.765 640.359,188.849 621.3,188.849 
			621.3,78.394 584.652,78.394 584.652,121.868 573.657,121.868 573.657,100.159 545.062,100.159 545.062,206.032 504.741,206.032 
			504.741,168.626 479.46,168.626 479.46,87.524 448.258,87.524 448.258,141.592 418.933,141.592 418.933,258.069 396.212,258.069 
			396.212,201.35 372.75,201.35 372.75,164.854 347.828,164.854 347.828,136.833 320.021,150.877 320.021,225.844 290.696,225.844 
			290.696,210.38 251.522,210.38 251.522,319.037 707.49,319.248 707.49,222.982 		"/>
		<path style="fill:#E6E6E6;" d="M374.662,319.095V157.433h-31.156v161.815C353.366,319.015,374.662,319.095,374.662,319.095z"/>
		<path style="fill:#FAFAFA;" d="M346.287,319.248v-88.911h-64.119v88.714L346.287,319.248z"/>
		<path style="fill:#E0E0E0;" d="M424.193,319.117V188.593H387.87V319.1L424.193,319.117z"/>
		<rect x="390.628" y="193.707" style="fill:#FAFAFA;" width="4.403" height="8.697"/>
		<rect x="399.433" y="193.707" style="fill:#FAFAFA;" width="4.403" height="8.697"/>
		<rect x="408.239" y="193.707" style="fill:#FAFAFA;" width="4.403" height="8.697"/>
		<rect x="417.045" y="193.707" style="fill:#FAFAFA;" width="4.403" height="8.697"/>
		<rect x="390.628" y="208.295" style="fill:#FAFAFA;" width="4.403" height="8.697"/>
		<rect x="399.433" y="208.295" style="fill:#FAFAFA;" width="4.403" height="8.697"/>
		<rect x="408.239" y="208.295" style="fill:#FAFAFA;" width="4.403" height="8.697"/>
		<rect x="417.045" y="208.295" style="fill:#FAFAFA;" width="4.403" height="8.697"/>
		<rect x="390.628" y="222.871" style="fill:#FAFAFA;" width="4.403" height="8.697"/>
		<rect x="399.433" y="222.871" style="fill:#FAFAFA;" width="4.403" height="8.697"/>
		<rect x="408.239" y="222.871" style="fill:#FAFAFA;" width="4.403" height="8.697"/>
		<rect x="417.045" y="222.871" style="fill:#FAFAFA;" width="4.403" height="8.697"/>
		<rect x="390.628" y="237.447" style="fill:#FAFAFA;" width="4.403" height="8.697"/>
		<rect x="399.433" y="237.447" style="fill:#FAFAFA;" width="4.403" height="8.697"/>
		<rect x="408.239" y="237.447" style="fill:#FAFAFA;" width="4.403" height="8.697"/>
		<rect x="417.045" y="237.447" style="fill:#FAFAFA;" width="4.403" height="8.697"/>
		<rect x="390.628" y="252.024" style="fill:#FAFAFA;" width="4.403" height="8.697"/>
		<rect x="399.433" y="252.024" style="fill:#FAFAFA;" width="4.403" height="8.697"/>
		<rect x="408.239" y="252.024" style="fill:#FAFAFA;" width="4.403" height="8.697"/>
		<rect x="417.045" y="252.024" style="fill:#FAFAFA;" width="4.403" height="8.697"/>
		<rect x="390.628" y="266.6" style="fill:#FAFAFA;" width="4.403" height="8.697"/>
		<rect x="399.433" y="266.6" style="fill:#FAFAFA;" width="4.403" height="8.697"/>
		<rect x="408.239" y="266.6" style="fill:#FAFAFA;" width="4.403" height="8.697"/>
		<rect x="417.045" y="266.6" style="fill:#FAFAFA;" width="4.403" height="8.697"/>
		<rect x="390.628" y="281.177" style="fill:#FAFAFA;" width="4.403" height="8.697"/>
		<rect x="399.433" y="281.177" style="fill:#FAFAFA;" width="4.403" height="8.697"/>
		<rect x="408.239" y="281.177" style="fill:#FAFAFA;" width="4.403" height="8.697"/>
		<rect x="417.045" y="281.177" style="fill:#FAFAFA;" width="4.403" height="8.697"/>
		<rect x="390.628" y="295.764" style="fill:#FAFAFA;" width="4.403" height="8.697"/>
		<rect x="399.433" y="295.764" style="fill:#FAFAFA;" width="4.403" height="8.697"/>
		<rect x="408.239" y="295.764" style="fill:#FAFAFA;" width="4.403" height="8.697"/>
		<rect x="417.045" y="295.764" style="fill:#FAFAFA;" width="4.403" height="8.697"/>
		<path style="fill:#F5F5F5;" d="M550.415,319.175V170.001h-75.311v149.225C475.104,319.226,549.838,319.248,550.415,319.175z"/>
		<rect x="480.758" y="175.947" style="fill:#E6E6E6;" width="9.13" height="10.017"/>
		<rect x="499.029" y="175.947" style="fill:#E6E6E6;" width="9.13" height="10.017"/>
		<rect x="517.289" y="175.947" style="fill:#E6E6E6;" width="9.13" height="10.017"/>
		<rect x="535.561" y="175.947" style="fill:#E6E6E6;" width="9.13" height="10.017"/>
		<rect x="480.758" y="192.753" style="fill:#E6E6E6;" width="9.13" height="10.017"/>
		<rect x="499.029" y="192.753" style="fill:#E6E6E6;" width="9.13" height="10.017"/>
		<rect x="517.289" y="192.753" style="fill:#E6E6E6;" width="9.13" height="10.017"/>
		<rect x="535.561" y="192.753" style="fill:#E6E6E6;" width="9.13" height="10.017"/>
		<rect x="480.758" y="209.548" style="fill:#E6E6E6;" width="9.13" height="10.017"/>
		<rect x="499.029" y="209.548" style="fill:#E6E6E6;" width="9.13" height="10.017"/>
		<rect x="517.289" y="209.548" style="fill:#E6E6E6;" width="9.13" height="10.017"/>
		<rect x="535.561" y="209.548" style="fill:#E6E6E6;" width="9.13" height="10.017"/>
		<rect x="480.758" y="226.343" style="fill:#E6E6E6;" width="9.13" height="10.017"/>
		<rect x="499.029" y="226.343" style="fill:#E6E6E6;" width="9.13" height="10.017"/>
		<rect x="517.289" y="226.343" style="fill:#E6E6E6;" width="9.13" height="10.017"/>
		<rect x="535.561" y="226.343" style="fill:#E6E6E6;" width="9.13" height="10.017"/>
		<rect x="480.758" y="243.149" style="fill:#E6E6E6;" width="9.13" height="10.017"/>
		<rect x="499.029" y="243.149" style="fill:#E6E6E6;" width="9.13" height="10.017"/>
		<rect x="517.289" y="243.149" style="fill:#E6E6E6;" width="9.13" height="10.017"/>
		<rect x="535.561" y="243.149" style="fill:#E6E6E6;" width="9.13" height="10.017"/>
		<rect x="480.758" y="259.944" style="fill:#E6E6E6;" width="9.13" height="10.017"/>
		<rect x="499.029" y="259.944" style="fill:#E6E6E6;" width="9.13" height="10.017"/>
		<rect x="517.289" y="259.944" style="fill:#E6E6E6;" width="9.13" height="10.017"/>
		<rect x="535.561" y="259.944" style="fill:#E6E6E6;" width="9.13" height="10.017"/>
		<rect x="480.758" y="276.75" style="fill:#E6E6E6;" width="9.13" height="10.017"/>
		<rect x="499.029" y="276.75" style="fill:#E6E6E6;" width="9.13" height="10.017"/>
		<rect x="517.289" y="276.75" style="fill:#E6E6E6;" width="9.13" height="10.017"/>
		<rect x="535.561" y="276.75" style="fill:#E6E6E6;" width="9.13" height="10.017"/>
		<rect x="480.758" y="293.545" style="fill:#E6E6E6;" width="9.13" height="10.017"/>
		<rect x="499.029" y="293.545" style="fill:#E6E6E6;" width="9.13" height="10.017"/>
		<rect x="517.289" y="293.545" style="fill:#E6E6E6;" width="9.13" height="10.017"/>
		<rect x="535.561" y="293.545" style="fill:#E6E6E6;" width="9.13" height="10.017"/>
		<rect x="349.251" y="168.421" style="fill:#FAFAFA;" width="8.413" height="9.231"/>
		<rect x="349.251" y="183.897" style="fill:#FAFAFA;" width="8.413" height="9.231"/>
		<rect x="349.251" y="199.384" style="fill:#FAFAFA;" width="8.413" height="9.231"/>
		<rect x="349.251" y="214.861" style="fill:#FAFAFA;" width="8.413" height="9.231"/>
		<rect x="349.251" y="230.337" style="fill:#FAFAFA;" width="8.413" height="9.231"/>
		<rect x="349.251" y="245.824" style="fill:#FAFAFA;" width="8.413" height="9.231"/>
		<rect x="349.251" y="261.301" style="fill:#FAFAFA;" width="8.413" height="9.231"/>
		<rect x="349.251" y="276.788" style="fill:#FAFAFA;" width="8.413" height="9.231"/>
		<rect x="360.504" y="168.421" style="fill:#FAFAFA;" width="8.413" height="9.231"/>
		<rect x="360.504" y="183.897" style="fill:#FAFAFA;" width="8.413" height="9.231"/>
		<rect x="360.504" y="199.384" style="fill:#FAFAFA;" width="8.413" height="9.231"/>
		<rect x="360.504" y="214.861" style="fill:#FAFAFA;" width="8.413" height="9.231"/>
		<rect x="360.504" y="230.337" style="fill:#FAFAFA;" width="8.413" height="9.231"/>
		<rect x="360.504" y="245.824" style="fill:#FAFAFA;" width="8.413" height="9.231"/>
		<rect x="360.504" y="261.301" style="fill:#FAFAFA;" width="8.413" height="9.231"/>
		<rect x="360.504" y="276.788" style="fill:#FAFAFA;" width="8.413" height="9.231"/>
		<rect x="455.395" y="98.253" style="fill:#FAFAFA;" width="9.13" height="10.017"/>
		<rect x="455.395" y="115.048" style="fill:#FAFAFA;" width="9.13" height="10.017"/>
		<rect x="455.395" y="130.699" style="fill:#FAFAFA;" width="9.13" height="10.017"/>
		<rect x="455.395" y="147.493" style="fill:#FAFAFA;" width="9.13" height="10.017"/>
		<rect x="455.395" y="164.288" style="fill:#FAFAFA;" width="9.13" height="10.017"/>
		<rect x="455.395" y="181.094" style="fill:#FAFAFA;" width="9.13" height="10.017"/>
		<rect x="455.395" y="197.889" style="fill:#FAFAFA;" width="9.13" height="10.017"/>
		<rect x="455.395" y="214.695" style="fill:#FAFAFA;" width="9.13" height="10.017"/>
		<rect x="592.542" y="83.686" style="fill:#FAFAFA;" width="9.13" height="10.017"/>
		<rect x="592.542" y="100.481" style="fill:#FAFAFA;" width="9.13" height="10.017"/>
		<rect x="592.542" y="117.287" style="fill:#FAFAFA;" width="9.13" height="10.017"/>
		<rect x="592.542" y="134.082" style="fill:#FAFAFA;" width="9.13" height="10.017"/>
		<rect x="592.542" y="150.888" style="fill:#FAFAFA;" width="9.13" height="10.017"/>
		<rect x="592.542" y="167.683" style="fill:#FAFAFA;" width="9.13" height="10.017"/>
		<rect x="592.542" y="184.489" style="fill:#FAFAFA;" width="9.13" height="10.017"/>
		<rect x="592.542" y="201.284" style="fill:#FAFAFA;" width="9.13" height="10.017"/>
		<rect x="612.1" y="160.861" style="fill:#E6E6E6;" width="54.989" height="158.387"/>
		<rect x="620.234" y="168.67" style="fill:#FAFAFA;" width="16.117" height="10.017"/>
		<rect x="620.234" y="185.476" style="fill:#FAFAFA;" width="16.117" height="10.017"/>
		<rect x="620.234" y="202.271" style="fill:#FAFAFA;" width="16.117" height="10.017"/>
		<rect x="620.234" y="219.077" style="fill:#FAFAFA;" width="16.117" height="10.017"/>
		<rect x="620.234" y="235.872" style="fill:#FAFAFA;" width="16.117" height="10.017"/>
		<rect x="620.234" y="252.667" style="fill:#FAFAFA;" width="16.117" height="10.017"/>
		<rect x="620.234" y="269.473" style="fill:#FAFAFA;" width="16.117" height="10.017"/>
		<rect x="620.234" y="286.268" style="fill:#FAFAFA;" width="16.117" height="10.017"/>
		<rect x="641.796" y="168.67" style="fill:#FAFAFA;" width="16.117" height="10.017"/>
		<rect x="641.796" y="185.476" style="fill:#FAFAFA;" width="16.117" height="10.017"/>
		<rect x="641.796" y="202.271" style="fill:#FAFAFA;" width="16.117" height="10.017"/>
		<rect x="641.796" y="219.077" style="fill:#FAFAFA;" width="16.117" height="10.017"/>
		<rect x="641.796" y="235.872" style="fill:#FAFAFA;" width="16.117" height="10.017"/>
		<rect x="641.796" y="252.667" style="fill:#FAFAFA;" width="16.117" height="10.017"/>
		<rect x="641.796" y="269.473" style="fill:#FAFAFA;" width="16.117" height="10.017"/>
		<rect x="641.796" y="286.268" style="fill:#FAFAFA;" width="16.117" height="10.017"/>
		<path style="fill:#E0E0E0;" d="M582.115,319.19V209.548h-23.984v109.631L582.115,319.19z"/>
		<rect x="559.95" y="213.986" style="fill:#FAFAFA;" width="2.908" height="7.466"/>
		<rect x="565.766" y="213.986" style="fill:#FAFAFA;" width="2.908" height="7.466"/>
		<rect x="571.571" y="213.986" style="fill:#FAFAFA;" width="2.908" height="7.466"/>
		<rect x="577.388" y="213.986" style="fill:#FAFAFA;" width="2.908" height="7.466"/>
		<rect x="559.95" y="226.51" style="fill:#FAFAFA;" width="2.908" height="7.466"/>
		<rect x="565.766" y="226.51" style="fill:#FAFAFA;" width="2.908" height="7.466"/>
		<rect x="571.571" y="226.51" style="fill:#FAFAFA;" width="2.908" height="7.466"/>
		<rect x="577.388" y="226.51" style="fill:#FAFAFA;" width="2.908" height="7.466"/>
		<rect x="559.95" y="239.034" style="fill:#FAFAFA;" width="2.908" height="7.466"/>
		<rect x="565.766" y="239.034" style="fill:#FAFAFA;" width="2.908" height="7.466"/>
		<rect x="571.571" y="239.034" style="fill:#FAFAFA;" width="2.908" height="7.466"/>
		<rect x="577.388" y="239.034" style="fill:#FAFAFA;" width="2.908" height="7.466"/>
		<rect x="559.95" y="251.558" style="fill:#FAFAFA;" width="2.908" height="7.466"/>
		<rect x="565.766" y="251.558" style="fill:#FAFAFA;" width="2.908" height="7.466"/>
		<rect x="571.571" y="251.558" style="fill:#FAFAFA;" width="2.908" height="7.466"/>
		<rect x="577.388" y="251.558" style="fill:#FAFAFA;" width="2.908" height="7.466"/>
		<rect x="559.95" y="264.093" style="fill:#FAFAFA;" width="2.908" height="7.466"/>
		<rect x="565.766" y="264.093" style="fill:#FAFAFA;" width="2.908" height="7.466"/>
		<rect x="571.571" y="264.093" style="fill:#FAFAFA;" width="2.908" height="7.466"/>
		<rect x="577.388" y="264.093" style="fill:#FAFAFA;" width="2.908" height="7.466"/>
		<rect x="559.95" y="276.617" style="fill:#FAFAFA;" width="2.908" height="7.466"/>
		<rect x="565.766" y="276.617" style="fill:#FAFAFA;" width="2.908" height="7.466"/>
		<rect x="571.571" y="276.617" style="fill:#FAFAFA;" width="2.908" height="7.466"/>
		<rect x="577.388" y="276.617" style="fill:#FAFAFA;" width="2.908" height="7.466"/>
		<rect x="559.95" y="289.142" style="fill:#FAFAFA;" width="2.908" height="7.466"/>
		<rect x="565.766" y="289.142" style="fill:#FAFAFA;" width="2.908" height="7.466"/>
		<rect x="571.571" y="289.142" style="fill:#FAFAFA;" width="2.908" height="7.466"/>
		<rect x="577.388" y="289.142" style="fill:#FAFAFA;" width="2.908" height="7.466"/>
		<rect x="559.95" y="301.665" style="fill:#FAFAFA;" width="2.908" height="7.466"/>
		<rect x="565.766" y="301.665" style="fill:#FAFAFA;" width="2.908" height="7.466"/>
		<rect x="571.571" y="301.665" style="fill:#FAFAFA;" width="2.908" height="7.466"/>
		<rect x="577.388" y="301.665" style="fill:#FAFAFA;" width="2.908" height="7.466"/>
		<rect x="287.023" y="234.053" style="fill:#E6E6E6;" width="7.774" height="6.268"/>
		<rect x="302.572" y="234.053" style="fill:#E6E6E6;" width="7.774" height="6.268"/>
		<rect x="318.109" y="234.053" style="fill:#E6E6E6;" width="7.774" height="6.268"/>
		<rect x="333.658" y="234.053" style="fill:#E6E6E6;" width="7.774" height="6.268"/>
		<rect x="287.023" y="244.558" style="fill:#E6E6E6;" width="7.774" height="6.267"/>
		<rect x="302.572" y="244.558" style="fill:#E6E6E6;" width="7.774" height="6.267"/>
		<rect x="318.109" y="244.558" style="fill:#E6E6E6;" width="7.774" height="6.267"/>
		<rect x="333.658" y="244.558" style="fill:#E6E6E6;" width="7.774" height="6.267"/>
		<rect x="287.023" y="255.063" style="fill:#E6E6E6;" width="7.774" height="6.267"/>
		<rect x="302.572" y="255.063" style="fill:#E6E6E6;" width="7.774" height="6.267"/>
		<rect x="318.109" y="255.063" style="fill:#E6E6E6;" width="7.774" height="6.267"/>
		<rect x="333.658" y="255.063" style="fill:#E6E6E6;" width="7.774" height="6.267"/>
		<rect x="287.023" y="265.569" style="fill:#E6E6E6;" width="7.774" height="6.268"/>
		<rect x="302.572" y="265.569" style="fill:#E6E6E6;" width="7.774" height="6.268"/>
		<rect x="318.109" y="265.569" style="fill:#E6E6E6;" width="7.774" height="6.268"/>
		<rect x="333.658" y="265.569" style="fill:#E6E6E6;" width="7.774" height="6.268"/>
		<rect x="287.023" y="276.063" style="fill:#E6E6E6;" width="7.774" height="6.268"/>
		<rect x="302.572" y="276.063" style="fill:#E6E6E6;" width="7.774" height="6.268"/>
		<rect x="318.109" y="276.063" style="fill:#E6E6E6;" width="7.774" height="6.268"/>
		<rect x="333.658" y="276.063" style="fill:#E6E6E6;" width="7.774" height="6.268"/>
		<rect x="287.023" y="286.568" style="fill:#E6E6E6;" width="7.774" height="6.267"/>
		<rect x="302.572" y="286.568" style="fill:#E6E6E6;" width="7.774" height="6.267"/>
		<rect x="318.109" y="286.568" style="fill:#E6E6E6;" width="7.774" height="6.267"/>
		<rect x="333.658" y="286.568" style="fill:#E6E6E6;" width="7.774" height="6.267"/>
		<rect x="287.023" y="297.073" style="fill:#E6E6E6;" width="7.774" height="6.268"/>
		<rect x="302.572" y="297.073" style="fill:#E6E6E6;" width="7.774" height="6.268"/>
		<rect x="318.109" y="297.073" style="fill:#E6E6E6;" width="7.774" height="6.268"/>
		<rect x="333.658" y="297.073" style="fill:#E6E6E6;" width="7.774" height="6.268"/>
	</g>
	<g id="freepik--background-complete--inject-481_00000044164159831858253420000007352219913334283426_">
		<g>
			<path style="fill:#E0E0E0;" d="M258.882,319.146V119.807h55.474V319.12L258.882,319.146z"/>
			<rect x="303.42" y="127.617" style="fill:#FAFAFA;" width="6.724" height="13.282"/>
			<rect x="289.971" y="127.617" style="fill:#FAFAFA;" width="6.724" height="13.282"/>
			<rect x="276.523" y="127.617" style="fill:#FAFAFA;" width="6.724" height="13.282"/>
			<rect x="263.075" y="127.617" style="fill:#FAFAFA;" width="6.724" height="13.282"/>
			<rect x="303.42" y="149.895" style="fill:#FAFAFA;" width="6.724" height="13.282"/>
			<rect x="289.971" y="149.895" style="fill:#FAFAFA;" width="6.724" height="13.282"/>
			<rect x="276.523" y="149.895" style="fill:#FAFAFA;" width="6.724" height="13.282"/>
			<rect x="263.075" y="149.895" style="fill:#FAFAFA;" width="6.724" height="13.282"/>
			<rect x="303.42" y="172.157" style="fill:#FAFAFA;" width="6.724" height="13.282"/>
			<rect x="289.971" y="172.157" style="fill:#FAFAFA;" width="6.724" height="13.282"/>
			<rect x="276.523" y="172.157" style="fill:#FAFAFA;" width="6.724" height="13.282"/>
			<rect x="263.075" y="172.157" style="fill:#FAFAFA;" width="6.724" height="13.282"/>
			<rect x="303.42" y="194.418" style="fill:#FAFAFA;" width="6.724" height="13.282"/>
			<rect x="289.971" y="194.418" style="fill:#FAFAFA;" width="6.724" height="13.282"/>
			<rect x="276.523" y="194.418" style="fill:#FAFAFA;" width="6.724" height="13.282"/>
			<rect x="263.075" y="194.418" style="fill:#FAFAFA;" width="6.724" height="13.282"/>
			<rect x="303.42" y="216.679" style="fill:#FAFAFA;" width="6.724" height="13.282"/>
			<rect x="289.971" y="216.679" style="fill:#FAFAFA;" width="6.724" height="13.282"/>
			<rect x="276.523" y="216.679" style="fill:#FAFAFA;" width="6.724" height="13.282"/>
			<rect x="263.075" y="216.679" style="fill:#FAFAFA;" width="6.724" height="13.282"/>
			<rect x="303.42" y="238.941" style="fill:#FAFAFA;" width="6.724" height="13.282"/>
			<rect x="289.971" y="238.941" style="fill:#FAFAFA;" width="6.724" height="13.282"/>
			<rect x="276.523" y="238.941" style="fill:#FAFAFA;" width="6.724" height="13.282"/>
			<rect x="263.075" y="238.941" style="fill:#FAFAFA;" width="6.724" height="13.282"/>
			<rect x="303.42" y="261.202" style="fill:#FAFAFA;" width="6.724" height="13.282"/>
			<rect x="289.971" y="261.202" style="fill:#FAFAFA;" width="6.724" height="13.282"/>
			<rect x="276.523" y="261.202" style="fill:#FAFAFA;" width="6.724" height="13.282"/>
			<rect x="263.075" y="261.202" style="fill:#FAFAFA;" width="6.724" height="13.282"/>
			<rect x="303.42" y="283.48" style="fill:#FAFAFA;" width="6.724" height="13.282"/>
			<rect x="289.971" y="283.48" style="fill:#FAFAFA;" width="6.724" height="13.282"/>
			<rect x="276.523" y="283.48" style="fill:#FAFAFA;" width="6.724" height="13.282"/>
			<rect x="263.075" y="283.48" style="fill:#FAFAFA;" width="6.724" height="13.282"/>
		</g>
		<g>
			<path style="fill:#F5F5F5;" d="M180.35,319.175V170.001h75.311v149.225C255.661,319.226,180.927,319.248,180.35,319.175z"/>
			<rect x="240.877" y="175.947" style="fill:#E6E6E6;" width="9.13" height="10.017"/>
			<rect x="222.605" y="175.947" style="fill:#E6E6E6;" width="9.13" height="10.017"/>
			<rect x="204.345" y="175.947" style="fill:#E6E6E6;" width="9.13" height="10.017"/>
			<rect x="186.073" y="175.947" style="fill:#E6E6E6;" width="9.13" height="10.017"/>
			<rect x="240.877" y="192.753" style="fill:#E6E6E6;" width="9.13" height="10.017"/>
			<rect x="222.605" y="192.753" style="fill:#E6E6E6;" width="9.13" height="10.017"/>
			<rect x="204.345" y="192.753" style="fill:#E6E6E6;" width="9.13" height="10.017"/>
			<rect x="186.073" y="192.753" style="fill:#E6E6E6;" width="9.13" height="10.017"/>
			<rect x="240.877" y="209.548" style="fill:#E6E6E6;" width="9.13" height="10.017"/>
			<rect x="222.605" y="209.548" style="fill:#E6E6E6;" width="9.13" height="10.017"/>
			<rect x="204.345" y="209.548" style="fill:#E6E6E6;" width="9.13" height="10.017"/>
			<rect x="186.073" y="209.548" style="fill:#E6E6E6;" width="9.13" height="10.017"/>
			<rect x="240.877" y="226.343" style="fill:#E6E6E6;" width="9.13" height="10.017"/>
			<rect x="222.605" y="226.343" style="fill:#E6E6E6;" width="9.13" height="10.017"/>
			<rect x="204.345" y="226.343" style="fill:#E6E6E6;" width="9.13" height="10.017"/>
			<rect x="186.073" y="226.343" style="fill:#E6E6E6;" width="9.13" height="10.017"/>
			<rect x="240.877" y="243.149" style="fill:#E6E6E6;" width="9.13" height="10.017"/>
			<rect x="222.605" y="243.149" style="fill:#E6E6E6;" width="9.13" height="10.017"/>
			<rect x="204.345" y="243.149" style="fill:#E6E6E6;" width="9.13" height="10.017"/>
			<rect x="186.073" y="243.149" style="fill:#E6E6E6;" width="9.13" height="10.017"/>
			<rect x="240.877" y="259.944" style="fill:#E6E6E6;" width="9.13" height="10.017"/>
			<rect x="222.605" y="259.944" style="fill:#E6E6E6;" width="9.13" height="10.017"/>
			<rect x="204.345" y="259.944" style="fill:#E6E6E6;" width="9.13" height="10.017"/>
			<rect x="186.073" y="259.944" style="fill:#E6E6E6;" width="9.13" height="10.017"/>
			<rect x="240.877" y="276.75" style="fill:#E6E6E6;" width="9.13" height="10.017"/>
			<rect x="222.605" y="276.75" style="fill:#E6E6E6;" width="9.13" height="10.017"/>
			<rect x="204.345" y="276.75" style="fill:#E6E6E6;" width="9.13" height="10.017"/>
			<rect x="186.073" y="276.75" style="fill:#E6E6E6;" width="9.13" height="10.017"/>
			<rect x="240.877" y="293.545" style="fill:#E6E6E6;" width="9.13" height="10.017"/>
			<rect x="222.605" y="293.545" style="fill:#E6E6E6;" width="9.13" height="10.017"/>
			<rect x="204.345" y="293.545" style="fill:#E6E6E6;" width="9.13" height="10.017"/>
			<rect x="186.073" y="293.545" style="fill:#E6E6E6;" width="9.13" height="10.017"/>
		</g>
		<g>
			<rect x="63.675" y="160.861" style="fill:#E6E6E6;" width="54.989" height="158.387"/>
			<rect x="94.414" y="168.67" style="fill:#FAFAFA;" width="16.117" height="10.017"/>
			<rect x="94.414" y="185.476" style="fill:#FAFAFA;" width="16.117" height="10.017"/>
			<rect x="94.414" y="202.271" style="fill:#FAFAFA;" width="16.117" height="10.017"/>
			<rect x="94.414" y="219.077" style="fill:#FAFAFA;" width="16.117" height="10.017"/>
			<rect x="94.414" y="235.872" style="fill:#FAFAFA;" width="16.117" height="10.017"/>
			<rect x="94.414" y="252.667" style="fill:#FAFAFA;" width="16.117" height="10.017"/>
			<rect x="94.414" y="269.473" style="fill:#FAFAFA;" width="16.117" height="10.017"/>
			<rect x="94.414" y="286.268" style="fill:#FAFAFA;" width="16.117" height="10.017"/>
			<rect x="72.852" y="168.67" style="fill:#FAFAFA;" width="16.117" height="10.017"/>
			<rect x="72.852" y="185.476" style="fill:#FAFAFA;" width="16.117" height="10.017"/>
			<rect x="72.852" y="202.271" style="fill:#FAFAFA;" width="16.117" height="10.017"/>
			<rect x="72.852" y="219.077" style="fill:#FAFAFA;" width="16.117" height="10.017"/>
			<rect x="72.852" y="235.872" style="fill:#FAFAFA;" width="16.117" height="10.017"/>
			<rect x="72.852" y="252.667" style="fill:#FAFAFA;" width="16.117" height="10.017"/>
			<rect x="72.852" y="269.473" style="fill:#FAFAFA;" width="16.117" height="10.017"/>
			<rect x="72.852" y="286.268" style="fill:#FAFAFA;" width="16.117" height="10.017"/>
		</g>
		<g>
			<path style="fill:#E0E0E0;" d="M126.217,317.018V147.81h37.013v169.19L126.217,317.018z"/>
			<rect x="155.935" y="154.658" style="fill:#FAFAFA;" width="4.488" height="11.521"/>
			<rect x="146.959" y="154.658" style="fill:#FAFAFA;" width="4.488" height="11.521"/>
			<rect x="138" y="154.658" style="fill:#FAFAFA;" width="4.488" height="11.521"/>
			<rect x="129.024" y="154.658" style="fill:#FAFAFA;" width="4.488" height="11.521"/>
			<rect x="155.935" y="173.986" style="fill:#FAFAFA;" width="4.488" height="11.522"/>
			<rect x="146.959" y="173.986" style="fill:#FAFAFA;" width="4.488" height="11.522"/>
			<rect x="138" y="173.986" style="fill:#FAFAFA;" width="4.488" height="11.522"/>
			<rect x="129.024" y="173.986" style="fill:#FAFAFA;" width="4.488" height="11.522"/>
			<rect x="155.935" y="193.315" style="fill:#FAFAFA;" width="4.488" height="11.522"/>
			<rect x="146.959" y="193.315" style="fill:#FAFAFA;" width="4.488" height="11.522"/>
			<rect x="138" y="193.315" style="fill:#FAFAFA;" width="4.488" height="11.522"/>
			<rect x="129.024" y="193.315" style="fill:#FAFAFA;" width="4.488" height="11.522"/>
			<rect x="155.935" y="212.643" style="fill:#FAFAFA;" width="4.488" height="11.521"/>
			<rect x="146.959" y="212.643" style="fill:#FAFAFA;" width="4.488" height="11.521"/>
			<rect x="138" y="212.643" style="fill:#FAFAFA;" width="4.488" height="11.521"/>
			<rect x="129.024" y="212.643" style="fill:#FAFAFA;" width="4.488" height="11.521"/>
			<rect x="155.935" y="231.988" style="fill:#FAFAFA;" width="4.488" height="11.522"/>
			<rect x="146.959" y="231.988" style="fill:#FAFAFA;" width="4.488" height="11.522"/>
			<rect x="138" y="231.988" style="fill:#FAFAFA;" width="4.488" height="11.522"/>
			<rect x="129.024" y="231.988" style="fill:#FAFAFA;" width="4.488" height="11.522"/>
			<rect x="155.935" y="251.316" style="fill:#FAFAFA;" width="4.488" height="11.521"/>
			<rect x="146.959" y="251.316" style="fill:#FAFAFA;" width="4.488" height="11.521"/>
			<rect x="138" y="251.316" style="fill:#FAFAFA;" width="4.488" height="11.521"/>
			<rect x="129.024" y="251.316" style="fill:#FAFAFA;" width="4.488" height="11.521"/>
			<rect x="155.935" y="270.645" style="fill:#FAFAFA;" width="4.488" height="11.522"/>
			<rect x="146.959" y="270.645" style="fill:#FAFAFA;" width="4.488" height="11.522"/>
			<rect x="138" y="270.645" style="fill:#FAFAFA;" width="4.488" height="11.522"/>
			<rect x="129.024" y="270.645" style="fill:#FAFAFA;" width="4.488" height="11.522"/>
			<rect x="155.935" y="289.973" style="fill:#FAFAFA;" width="4.488" height="11.522"/>
			<rect x="146.959" y="289.973" style="fill:#FAFAFA;" width="4.488" height="11.522"/>
			<rect x="138" y="289.973" style="fill:#FAFAFA;" width="4.488" height="11.522"/>
			<rect x="129.024" y="289.973" style="fill:#FAFAFA;" width="4.488" height="11.522"/>
		</g>
	</g>
</g>
<g id="Background_simple" style="display:none;">
	<g style="display:inline;">
		<path style="fill:#407BFF;" d="M502.123,327.327c35.996-3.27,70.707-10.23,101.492-21.149
			c36.284-12.869,73.357-32.917,62.407-59.14c-20.215-48.411-117.192-49.293-97.829-81.843c21.932-36.871,7.224-80.12-91.191-92.147
			C290.076,50.204,64.111,183.867,127.576,257.313C167.087,303.037,310.993,344.687,502.123,327.327z"/>
		<path style="opacity:0.9;fill:#FFFFFF;" d="M502.123,327.327c35.996-3.27,70.707-10.23,101.492-21.149
			c36.284-12.869,73.357-32.917,62.407-59.14c-20.215-48.411-117.192-49.293-97.829-81.843c21.932-36.871,7.224-80.12-91.191-92.147
			C290.076,50.204,64.111,183.867,127.576,257.313C167.087,303.037,310.993,344.687,502.123,327.327z"/>
	</g>
</g>
<g id="Shadow">
	<g>
		<g>
			<path style="fill:#F5F5F5;" d="M703.711,444.168c0,3.387-147.866,6.132-330.268,6.132s-330.268-2.745-330.268-6.132
				c0-3.387,147.866-6.132,330.268-6.132S703.711,440.781,703.711,444.168z"/>
		</g>
	</g>
</g>
<g id="Bus">
	<g>
		<g>
			
				<rect x="380.424" y="356.205" transform="matrix(-1 -1.224647e-16 1.224647e-16 -1 840.5094 775.8071)" style="fill:#407BFF;" width="79.661" height="63.397"/>
			
				<rect x="380.424" y="356.205" transform="matrix(-1 -1.224647e-16 1.224647e-16 -1 840.5094 775.8071)" style="opacity:0.5;" width="79.661" height="63.397"/>
		</g>
		<g>
			<ellipse style="fill:#263238;" cx="428.15" cy="408.549" rx="22.766" ry="35.619"/>
			<path style="fill:#263238;" d="M425.113,408.549c0,12.295-3.019,29.218,3.037,35.619c0,0,15.014,0,19.729,0
				c12.573,0,22.766-15.947,22.766-35.619c0-19.672-10.193-35.619-22.766-35.619c-5.408,0-19.09-0.646-19.729,0
				C422.292,378.853,425.113,397.339,425.113,408.549z"/>
			<ellipse style="opacity:0.3;fill:#FFFFFF;" cx="426.567" cy="407.459" rx="11.609" ry="18.162"/>
		</g>
		<g>
			
				<rect x="118.919" y="356.205" transform="matrix(-1 -1.224647e-16 1.224647e-16 -1 317.4982 775.8071)" style="fill:#407BFF;" width="79.661" height="63.397"/>
			
				<rect x="118.919" y="356.205" transform="matrix(-1 -1.224647e-16 1.224647e-16 -1 317.4982 775.8071)" style="opacity:0.5;" width="79.661" height="63.397"/>
		</g>
		<g>
			<ellipse style="fill:#263238;" cx="166.644" cy="408.549" rx="22.766" ry="35.619"/>
			<path style="fill:#263238;" d="M163.607,408.549c0,12.295-3.019,29.218,3.037,35.619c0,0,15.014,0,19.729,0
				c12.573,0,22.766-15.947,22.766-35.619c0-19.672-10.193-35.619-22.766-35.619c-5.408,0-19.09-0.646-19.729,0
				C160.786,378.853,163.607,397.339,163.607,408.549z"/>
			<ellipse style="opacity:0.3;fill:#FFFFFF;" cx="165.061" cy="407.459" rx="11.608" ry="18.162"/>
		</g>
		<g>
			<ellipse style="fill:#263238;" cx="270.772" cy="408.549" rx="22.766" ry="35.619"/>
			<path style="fill:#263238;" d="M267.735,408.549c0,12.295-3.019,29.218,3.037,35.619c0,0,15.014,0,19.729,0
				c12.573,0,22.766-15.947,22.766-35.619c0-19.672-10.193-35.619-22.766-35.619c-5.408,0-19.09-0.646-19.729,0
				C264.913,378.853,267.735,397.339,267.735,408.549z"/>
			<ellipse style="opacity:0.3;fill:#FFFFFF;" cx="269.189" cy="407.459" rx="11.609" ry="18.162"/>
		</g>
		<path style="opacity:0.3;" d="M290.501,372.93c-5.408,0-19.09-0.646-19.729,0c-12.573,0-22.766,15.947-22.766,35.619
			c0,19.672,10.193,35.619,22.766,35.619c0,0,15.014,0,19.729,0c12.573,0,22.766-15.947,22.766-35.619
			C313.267,388.877,303.074,372.93,290.501,372.93z"/>
		<g>
			<ellipse style="fill:#263238;" cx="567.987" cy="408.549" rx="22.766" ry="35.619"/>
			<path style="fill:#263238;" d="M564.95,408.549c0,12.295-3.019,29.218,3.037,35.619c0,0,15.014,0,19.729,0
				c12.573,0,22.766-15.947,22.766-35.619c0-19.672-10.193-35.619-22.766-35.619c-5.408,0-19.09-0.646-19.729,0
				C562.128,378.853,564.95,397.339,564.95,408.549z"/>
			<ellipse style="opacity:0.3;fill:#FFFFFF;" cx="566.403" cy="407.459" rx="11.609" ry="18.162"/>
		</g>
		<path style="opacity:0.3;" d="M587.876,372.93c-5.408,0-19.09-0.646-19.729,0c-12.573,0-22.766,15.947-22.766,35.619
			c0,19.672,10.193,35.619,22.766,35.619c0,0,15.014,0,19.729,0c12.573,0,22.766-15.947,22.766-35.619
			C610.642,388.877,600.45,372.93,587.876,372.93z"/>
		<path style="fill:#407BFF;" d="M64.371,214.23l613.942,0.528c11.153,0.01,18.365,1.302,20.561,12.285
			c7.543,37.712,26.245,126.646,20.934,163.986l-1.485,7.272c-1.145,12.078-11.244,21.301-23.322,21.301H452.919
			c1.455-4.831,2.267-10.165,2.267-15.778c0-21.734-12.105-39.353-27.037-39.353c-14.932,0-27.037,17.619-27.037,39.353
			c0,5.613,0.813,10.946,2.267,15.778H188.624c1.455-4.831,2.267-10.165,2.267-15.778c0-21.734-12.105-39.353-27.037-39.353
			c-14.932,0-27.037,17.619-27.037,39.353c0,5.613,0.813,10.946,2.267,15.778H64.351c-12.939,0-23.428-10.536-23.428-23.532V228.209
			C40.923,215.204,51.424,214.219,64.371,214.23z"/>
		<path style="opacity:0.5;fill:#FFFFFF;" d="M40.923,376.747h11.305v30.424H43.69c0,0-2.767-4.597-2.767-10.268V376.747z"/>
		<path style="fill:#407BFF;" d="M586.637,214.68l-11.519-17.351c-1.125-1.694-3.022-2.712-5.055-2.712H205.189
			c-2.419,0-4.641,1.338-5.771,3.478l-8.526,16.136L586.637,214.68z"/>
		<path style="fill:#FFFFFF;" d="M369.576,401.282h8.692c1.683,0,3.048-1.365,3.048-3.048v0c0-1.683-1.365-3.048-3.048-3.048h-8.692
			c-1.683,0-3.048,1.365-3.048,3.048v0C366.529,399.917,367.893,401.282,369.576,401.282z"/>
		<path style="fill:#FFFFFF;" d="M215.739,401.229h8.692c1.683,0,3.048-1.365,3.048-3.048l0,0c0-1.683-1.365-3.048-3.048-3.048
			h-8.692c-1.683,0-3.048,1.365-3.048,3.048l0,0C212.691,399.865,214.055,401.229,215.739,401.229z"/>
		<path style="fill:#FFFFFF;" d="M66.64,401.282h8.692c1.683,0,3.048-1.365,3.048-3.048v0c0-1.683-1.365-3.048-3.048-3.048H66.64
			c-1.683,0-3.048,1.365-3.048,3.048v0C63.592,399.917,64.956,401.282,66.64,401.282z"/>
		<rect x="189.41" y="406.671" style="fill:#263238;" width="211.809" height="1"/>
		<rect x="43.69" y="406.671" style="fill:#263238;" width="93.818" height="1"/>
		<rect x="120.122" y="344.454" style="fill:#263238;" width="1" height="63.005"/>
		<rect x="58.503" y="316.294" style="fill:#263238;" width="1" height="90.877"/>
		<rect x="202.124" y="345.973" style="fill:#263238;" width="1" height="60.27"/>
		<rect x="388.489" y="347.255" style="fill:#263238;" width="1" height="59.916"/>
		
			<rect x="209.139" y="353.329" transform="matrix(-1 -1.224647e-16 1.224647e-16 -1 591.8446 742.6261)" style="opacity:0.2;" width="173.566" height="35.967"/>
		<path style="opacity:0.3;fill:#FFFFFF;" d="M466.764,194.617h103.482c2.033,0,3.996,1.393,5.12,3.087l11.27,16.976l-131.956-0.428
			L466.764,194.617z"/>
		<g>
			
				<rect x="465.229" y="224.093" transform="matrix(-1 -1.224647e-16 1.224647e-16 -1 991.6861 631.5521)" style="fill:#263238;" width="61.228" height="183.365"/>
			
				<rect x="469.049" y="236.921" transform="matrix(-1 -1.224647e-16 1.224647e-16 -1 991.6269 610.4276)" style="opacity:0.3;fill:#FFFFFF;" width="53.529" height="136.585"/>
			<path style="opacity:0.3;fill:#FFFFFF;" d="M469.049,241.447l53.529,23.878v39.888c-1.247,1.246-53.529-26.746-53.529-26.746
				V241.447z"/>
			<polygon style="opacity:0.3;fill:#FFFFFF;" points="469.049,287.428 522.583,313.137 522.608,322.295 469.078,295.55 			"/>
			<path style="fill:#FFFFFF;" d="M504.432,401.229h8.692c1.683,0,3.048-1.365,3.048-3.048l0,0c0-1.683-1.365-3.048-3.048-3.048
				h-8.692c-1.683,0-3.048,1.365-3.048,3.048l0,0C501.384,399.865,502.749,401.229,504.432,401.229z"/>
			
				<rect x="493.534" y="235.407" transform="matrix(-1 -1.224647e-16 1.224647e-16 -1 991.1337 610.4275)" style="fill:#263238;" width="4.065" height="139.614"/>
		</g>
		<path style="opacity:0.2;" d="M466.764,194.617l-12.083,19.635H190.891l8.272-15.868c1.207-2.315,3.6-3.768,6.211-3.771"/>
		<polygon style="opacity:0.2;" points="586.637,214.68 191.081,214.635 193.23,210.363 583.748,210.363 		"/>
		<g>
			
				<rect x="435.833" y="204.493" transform="matrix(0.5416 -0.8407 0.8407 0.5416 29.7228 463.9902)" style="fill:#263238;" width="8.902" height="0.5"/>
			
				<rect x="432.19" y="204.493" transform="matrix(0.5416 -0.8407 0.8407 0.5416 28.0549 460.9312)" style="fill:#263238;" width="8.902" height="0.499"/>
			
				<rect x="428.547" y="204.493" transform="matrix(0.5416 -0.8407 0.8407 0.5416 26.385 457.869)" style="fill:#263238;" width="8.902" height="0.499"/>
			
				<rect x="424.904" y="204.493" transform="matrix(0.5416 -0.8407 0.8407 0.5416 24.715 454.8068)" style="fill:#263238;" width="8.902" height="0.499"/>
			
				<rect x="421.262" y="204.493" transform="matrix(0.5416 -0.8407 0.8407 0.5416 23.0451 451.7446)" style="fill:#263238;" width="8.902" height="0.5"/>
		</g>
		<g>
			
				<rect x="345.414" y="204.398" transform="matrix(0.5408 -0.8412 0.8412 0.5408 -11.4781 388.2716)" style="fill:#263238;" width="8.902" height="0.5"/>
			
				<rect x="341.772" y="204.398" transform="matrix(0.5408 -0.8412 0.8412 0.5408 -13.1519 385.2054)" style="fill:#263238;" width="8.902" height="0.5"/>
			
				<rect x="338.129" y="204.398" transform="matrix(0.5408 -0.8412 0.8412 0.5408 -14.8246 382.1414)" style="fill:#263238;" width="8.902" height="0.5"/>
			
				<rect x="334.487" y="204.398" transform="matrix(0.5408 -0.8412 0.8412 0.5408 -16.4973 379.0775)" style="fill:#263238;" width="8.902" height="0.5"/>
			
				<rect x="330.844" y="204.398" transform="matrix(0.5408 -0.8412 0.8412 0.5408 -18.17 376.0135)" style="fill:#263238;" width="8.902" height="0.5"/>
		</g>
		<g>
			
				<rect x="254.997" y="204.493" transform="matrix(0.5406 -0.8412 0.8412 0.5406 -53.0617 312.3098)" style="fill:#263238;" width="8.902" height="0.5"/>
			
				<rect x="251.354" y="204.493" transform="matrix(0.5406 -0.8412 0.8412 0.5406 -54.7351 309.2452)" style="fill:#263238;" width="8.902" height="0.5"/>
			
				<rect x="247.711" y="204.493" transform="matrix(0.5406 -0.8412 0.8412 0.5406 -56.4083 306.1809)" style="fill:#263238;" width="8.902" height="0.5"/>
			
				<rect x="244.069" y="204.493" transform="matrix(0.5406 -0.8412 0.8412 0.5406 -58.0815 303.1166)" style="fill:#263238;" width="8.902" height="0.5"/>
			
				<rect x="240.426" y="204.493" transform="matrix(0.5406 -0.8412 0.8412 0.5406 -59.7548 300.0523)" style="fill:#263238;" width="8.902" height="0.5"/>
		</g>
		<g>
			<polygon style="fill:#263238;" points="454.867,346.704 120.537,346.704 99.113,316.916 48.373,316.129 48.373,224.093 
				454.867,224.093 			"/>
			
				<rect x="392.316" y="235.564" transform="matrix(-1 -1.224647e-16 1.224647e-16 -1 840.5094 568.1419)" style="opacity:0.3;fill:#FFFFFF;" width="55.876" height="97.014"/>
			<path style="opacity:0.3;fill:#FFFFFF;" d="M392.405,238.09l55.7,23.878v39.888c-1.297,1.247-55.7-26.745-55.7-26.745V238.09z"/>
			<polygon style="opacity:0.3;fill:#FFFFFF;" points="392.389,284.071 448.094,309.78 448.12,318.938 392.42,292.193 			"/>
			<polygon style="opacity:0.3;fill:#FFFFFF;" points="126.616,332.42 198.579,332.42 198.579,235.407 108.576,235.407 108,308.427 
							"/>
			
				<rect x="211.384" y="235.407" transform="matrix(-1 -1.224647e-16 1.224647e-16 -1 592.2168 567.8271)" style="opacity:0.3;fill:#FFFFFF;" width="169.449" height="97.014"/>
			
				<rect x="54.384" y="235.407" transform="matrix(-1 -1.224647e-16 1.224647e-16 -1 150.8199 540.5415)" style="opacity:0.3;fill:#FFFFFF;" width="42.051" height="69.728"/>
			<polygon style="opacity:0.3;fill:#FFFFFF;" points="380.833,281.016 268.821,235.407 211.384,235.407 211.384,253.715 
				380.833,322.295 			"/>
			<polyline style="opacity:0.3;fill:#FFFFFF;" points="198.579,293.193 108.391,258.887 108.509,243.949 198.579,278.468 
				198.579,289.404 			"/>
			<polygon style="opacity:0.3;fill:#FFFFFF;" points="108.509,264.909 198.579,299.428 198.579,305.135 108.391,270.271 			"/>
			
				<rect x="51.584" y="249.564" transform="matrix(-1 -1.224647e-16 1.224647e-16 -1 501.8556 502.8449)" style="fill:#263238;" width="398.688" height="3.716"/>
		</g>
		<g>
			<path style="opacity:0.3;fill:#FFFFFF;" d="M698.874,227.043c7.543,37.712,26.245,126.646,20.934,163.986l-1.485,7.272
				c-1.145,12.078-11.244,21.301-23.322,21.301H541.792l-10.743-204.967l147.264,0.123
				C689.465,214.768,696.677,216.06,698.874,227.043z"/>
			<path style="opacity:0.4;fill:#FFFFFF;" d="M715.648,375.301c0,0-2.053,13.582-12.318,15.003
				c-10.265,1.421-36.481,0.316-36.481,0.316l1.974-5.044c2.246-5.74,7.732-9.559,13.895-9.672L715.648,375.301z"/>
			<path style="opacity:0.4;fill:#FFFFFF;" d="M562.774,375.301c0,0,2.053,13.582,12.318,15.003
				c10.265,1.421,36.481,0.316,36.481,0.316l-2.216-5.663c-2.099-5.365-7.227-8.934-12.988-9.04L562.774,375.301z"/>
			
				<rect x="619.604" y="406.476" transform="matrix(-1 -1.224647e-16 1.224647e-16 -1 1284.293 826.0784)" style="fill:#263238;" width="45.085" height="13.126"/>
			<path style="fill:#FFFFFF;" d="M698.465,411.928c0,1.945,1.174,3.521,2.623,3.521c1.449,0,2.623-1.577,2.623-3.521
				s-1.174-3.521-2.623-3.521C699.64,408.406,698.465,409.983,698.465,411.928z"/>
			<path style="fill:#FFFFFF;" d="M690.637,411.928c0,1.297,0.783,2.348,1.749,2.348c0.966,0,1.749-1.051,1.749-2.348
				s-0.783-2.348-1.749-2.348C691.42,409.579,690.637,410.631,690.637,411.928z"/>
			<path style="fill:#263238;" d="M675.379,419.603h-1c0-8.146,6.627-14.773,14.772-14.773h27.385v1h-27.385
				C681.558,405.829,675.379,412.008,675.379,419.603z"/>
			<path style="fill:#FFFFFF;" d="M577.883,411.928c0,1.945-1.174,3.521-2.623,3.521c-1.449,0-2.623-1.577-2.623-3.521
				s1.174-3.521,2.623-3.521C576.709,408.406,577.883,409.983,577.883,411.928z"/>
			<ellipse style="fill:#FFFFFF;" cx="583.962" cy="411.928" rx="1.749" ry="2.348"/>
			<path style="fill:#263238;" d="M601.97,419.603h-1c0-7.595-6.179-13.773-13.773-13.773h-46.215v-1h46.215
				C595.343,404.829,601.97,411.456,601.97,419.603z"/>
			<path style="opacity:0.4;fill:#FFFFFF;" d="M694.955,383.099c0,3.598,2.917,6.515,6.515,6.515c3.598,0,6.515-2.917,6.515-6.515
				c0-3.598-2.917-6.515-6.515-6.515C697.872,376.584,694.955,379.501,694.955,383.099z"/>
			<path style="opacity:0.4;fill:#FFFFFF;" d="M574.126,383.099c0,3.598,2.917,6.515,6.515,6.515c3.598,0,6.515-2.917,6.515-6.515
				c0-3.598-2.917-6.515-6.515-6.515C577.043,376.584,574.126,379.501,574.126,383.099z"/>
			<g>
				<path style="fill:#263238;" d="M691.548,224.093l20.127,119.243c1.005,5.952-3.583,11.378-9.619,11.378H572.223
					c-7.652,0-14.117-5.676-15.107-13.263l-15.324-117.358H691.548z"/>
				<polygon style="opacity:0.3;fill:#FFFFFF;" points="707.985,332.42 693.078,243.545 545.919,243.545 558.337,332.864 				"/>
				<polygon style="opacity:0.3;fill:#FFFFFF;" points="598.736,243.545 700.099,285.399 704.794,313.392 545.919,243.545 				"/>
				<polygon style="opacity:0.3;fill:#FFFFFF;" points="547.368,253.965 706.727,323.698 707.985,332.42 548.704,263.576 				"/>
				<polygon style="opacity:0.5;" points="547.227,240.221 692.015,240.221 689.296,227.909 545.919,227.909 				"/>
				
					<rect x="596.853" y="232.647" transform="matrix(-1 -1.224647e-16 1.224647e-16 -1 1266.4098 469.1708)" style="fill:#FFFFFF;" width="72.704" height="3.877"/>
				
					<rect x="588.059" y="230.69" transform="matrix(-1 -1.224647e-16 1.224647e-16 -1 1181.0723 469.1708)" style="fill:#FFFFFF;" width="4.955" height="7.791"/>
				
					<rect x="582.244" y="230.69" transform="matrix(-1 -1.224647e-16 1.224647e-16 -1 1169.2333 469.1708)" style="fill:#FFFFFF;" width="4.745" height="7.791"/>
			</g>
			<path style="fill:#263238;" d="M672.3,367.235c-53.386,0-132.09-0.016-133.279-0.016v-1c1.79,0.001,178.982,0.035,181.527,0
				l0.014,1C719.706,367.231,699.219,367.235,672.3,367.235z"/>
		</g>
		<g>
			<g>
				<path style="fill:#407BFF;" d="M722.795,292.304L722.795,292.304c5.137,0,9.302-4.165,9.302-9.302v-32.74
					c0-5.137-4.165-9.302-9.302-9.302l0,0c-5.137,0-9.302,4.165-9.302,9.302v32.74C713.493,288.139,717.658,292.304,722.795,292.304
					z"/>
				<path style="fill:#407BFF;" d="M725.016,244.13c0,0-2.416-8.756-8.605-9.662c-6.19-0.906-17.211,0-17.211,0v4.63
					c0,0,12.682-0.503,14.795,0c2.114,0.503,4.529,6.995,4.529,6.995L725.016,244.13z"/>
			</g>
			<g style="opacity:0.3;">
				<path style="fill:#FFFFFF;" d="M722.795,292.304L722.795,292.304c5.137,0,9.302-4.165,9.302-9.302v-32.74
					c0-5.137-4.165-9.302-9.302-9.302l0,0c-5.137,0-9.302,4.165-9.302,9.302v32.74C713.493,288.139,717.658,292.304,722.795,292.304
					z"/>
				<path style="fill:#FFFFFF;" d="M725.016,244.13c0,0-2.416-8.756-8.605-9.662c-6.19-0.906-17.211,0-17.211,0v4.63
					c0,0,12.682-0.503,14.795,0c2.114,0.503,4.529,6.995,4.529,6.995L725.016,244.13z"/>
			</g>
		</g>
		<g>
			<g>
				<path style="fill:#407BFF;" d="M565.388,295.155L565.388,295.155c5.137,0,9.302-4.165,9.302-9.302v-32.74
					c0-5.138-4.165-9.302-9.302-9.302l0,0c-5.137,0-9.302,4.165-9.302,9.302v32.74C556.086,290.99,560.25,295.155,565.388,295.155z"
					/>
				<path style="fill:#407BFF;" d="M567.608,246.98c0,0-2.416-8.756-8.605-9.662c-6.19-0.906-17.211,0-17.211,0v4.63
					c0,0,12.682-0.503,14.795,0c2.114,0.503,4.529,6.995,4.529,6.995L567.608,246.98z"/>
			</g>
			<g style="opacity:0.3;">
				<path style="fill:#FFFFFF;" d="M565.388,295.155L565.388,295.155c5.137,0,9.302-4.165,9.302-9.302v-32.74
					c0-5.138-4.165-9.302-9.302-9.302l0,0c-5.137,0-9.302,4.165-9.302,9.302v32.74C556.086,290.99,560.25,295.155,565.388,295.155z"
					/>
				<path style="fill:#FFFFFF;" d="M567.608,246.98c0,0-2.416-8.756-8.605-9.662c-6.19-0.906-17.211,0-17.211,0v4.63
					c0,0,12.682-0.503,14.795,0c2.114,0.503,4.529,6.995,4.529,6.995L567.608,246.98z"/>
			</g>
		</g>
	</g>
</g>
</svg>
