<svg xmlns="http://www.w3.org/2000/svg" viewBox="0 0 750 500"><g><path d="M77.39,131.11c-.6-1.6-1.21-3.22-2.22-4.6-1.01-1.38-2.48-2.51-4.17-2.71-1.69-.21-3.57,.71-4.12,2.32-.24-3.64-.76-7.37-2.58-10.53-1.82-3.16-5.22-5.64-8.86-5.42-3.43,.21-6.37,2.76-8,5.78-1.63,3.03-2.19,6.5-2.73,9.89-1.3-1.6-4.05-1.09-5.41,.45-1.36,1.55-1.7,3.71-1.99,5.75h40.93l-.85-.95Z" style="fill:#f5f5f5;"></path><path d="M242.22,88.75c-1-2.67-2.02-5.38-3.7-7.68-1.68-2.3-4.14-4.19-6.97-4.54-2.83-.35-5.97,1.18-6.89,3.88-.41-6.08-1.27-12.32-4.31-17.61-3.05-5.28-8.73-9.43-14.81-9.06-5.74,.35-10.65,4.61-13.38,9.67-2.73,5.06-3.67,10.86-4.56,16.54-2.18-2.67-6.77-1.83-9.04,.76-2.27,2.59-2.85,6.21-3.33,9.62h68.43l-1.43-1.58Z" style="fill:#f5f5f5;"></path><path d="M466.42,88.75c-1-2.67-2.02-5.38-3.7-7.68-1.68-2.3-4.14-4.19-6.97-4.54-2.83-.35-5.97,1.18-6.89,3.88-.41-6.08-1.27-12.32-4.31-17.61-3.05-5.28-8.73-9.43-14.81-9.06-5.74,.35-10.65,4.61-13.38,9.67-2.73,5.06-3.67,10.86-4.56,16.54-2.18-2.67-6.77-1.83-9.04,.76-2.27,2.59-2.85,6.21-3.33,9.62h68.43l-1.43-1.58Z" style="fill:#ebebeb;"></path><path d="M611.23,60.53c-.71-1.89-1.43-3.81-2.62-5.44-1.19-1.63-2.93-2.96-4.93-3.21-2-.25-4.22,.84-4.88,2.75-.29-4.3-.9-8.72-3.05-12.46-2.15-3.74-6.17-6.67-10.48-6.41-4.06,.25-7.54,3.26-9.47,6.84-1.93,3.58-2.59,7.68-3.23,11.7-1.54-1.89-4.79-1.29-6.39,.54-1.61,1.83-2.01,4.39-2.35,6.8h48.41l-1.01-1.12Z" style="fill:#ebebeb;"></path><path d="M482.83,120.06c-.36-.96-.73-1.93-1.33-2.76-.6-.83-1.49-1.5-2.5-1.63-1.02-.12-2.14,.42-2.47,1.39-.15-2.18-.46-4.42-1.55-6.32-1.09-1.9-3.13-3.39-5.32-3.25-2.06,.13-3.82,1.66-4.8,3.47s-1.32,3.9-1.64,5.94c-.78-.96-2.43-.66-3.24,.27s-1.02,2.23-1.19,3.45h24.57l-.51-.57Z" style="fill:#f5f5f5;"></path><path d="M522.75,68.08c-.36-.96-.73-1.93-1.33-2.76-.6-.83-1.49-1.5-2.5-1.63-1.02-.12-2.14,.42-2.47,1.39-.15-2.18-.46-4.42-1.55-6.32-1.09-1.9-3.13-3.39-5.32-3.25-2.06,.13-3.82,1.66-4.8,3.47-.98,1.82-1.32,3.9-1.64,5.94-.78-.96-2.43-.66-3.24,.27s-1.02,2.23-1.19,3.45h24.57l-.51-.57Z" style="fill:#f5f5f5;"></path><path d="M705.24,93.09c-.36-.96-.73-1.93-1.33-2.76-.6-.83-1.49-1.5-2.5-1.63-1.02-.12-2.14,.42-2.47,1.39-.15-2.18-.46-4.42-1.55-6.32-1.09-1.9-3.13-3.39-5.32-3.25-2.06,.13-3.82,1.66-4.8,3.47s-1.32,3.9-1.64,5.94c-.78-.96-2.43-.66-3.24,.27-.81,.93-1.02,2.23-1.19,3.45h24.57l-.51-.57Z" style="fill:#f5f5f5;"></path><path d="M122.73,78.03c-.36-.96-.73-1.93-1.33-2.76s-1.49-1.5-2.5-1.63c-1.02-.12-2.14,.42-2.47,1.39-.15-2.18-.46-4.42-1.55-6.32-1.09-1.9-3.13-3.39-5.32-3.25-2.06,.13-3.82,1.66-4.8,3.47-.98,1.82-1.32,3.9-1.64,5.94-.78-.96-2.43-.66-3.24,.27s-1.02,2.23-1.19,3.45h24.57l-.51-.57Z" style="fill:#f5f5f5;"></path><g><rect x="139.42" y="220.94" width="13.36" height="45.93" transform="translate(292.21 487.8) rotate(180)" style="fill:#ebebeb;"></rect><path d="M196.76,220.79s-.66-.44,.79-2.33c1.45-1.9-.79-2.92-.79-2.92-6.31,3.64-15.13,0-15.13,0,0,0,10.39-3.21,11.71-6.27,.98-2.29-.75-2.54-1.69-2.52,1.06-.11,3.36-.49,4.06-1.71,.92-1.6-2.7-3.5-2.7-3.5,0,0,.59-.87,0-2.48-.59-1.6-14.14-3.94-14.14-3.94,3.95,.44,5.39-3.5,5.39-3.5,0,0,6.71,.15,8.29-2.48,1.58-2.62-1.05-3.35-5.52-5.54-4.47-2.19-14.34-10.35-14.34-10.35,0,0,6.18-.58,7.89-2.04,1.71-1.46,.13-1.75,.13-1.75,7.37,.73,4.87-3.21,4.87-3.21-9.87-3.06-15.13-9.77-15.13-9.77,0,0,4.6-1.02,6.97-3.21,2.37-2.19-1.97-2.77-1.97-2.77,0,0,8.68-1.17,3.68-4.37-3.8-2.44-9.88-5.72-11.77-6.7,2.07,.76,6.77-.15,6.77-.15,5.52-2.48,0-6.12,0-6.12-6.44-3.64-15.92-12.83-15.92-12.83,0,0,4.74,2.48,7.1,1.75,2.37-.73-2.63-3.64-2.63-3.64,0,0,2.5,.73,3.55,0,1.05-.73-2.76-4.08-2.76-4.08-5.67-3.68-12.66-13.35-15.58-17.51-2.92,4.15-9.91,13.82-15.58,17.51,0,0-3.81,3.35-2.76,4.08,1.05,.73,3.55,0,3.55,0,0,0-5,2.92-2.63,3.64,2.37,.73,7.1-1.75,7.1-1.75,0,0-9.47,9.18-15.92,12.83,0,0-5.52,3.64,0,6.12,0,0,4.7,.91,6.77,.15-1.89,.99-7.97,4.26-11.77,6.7-5,3.21,3.68,4.37,3.68,4.37,0,0-4.34,.58-1.97,2.77,2.37,2.19,6.97,3.21,6.97,3.21,0,0-5.26,6.71-15.13,9.77,0,0-2.5,3.94,4.87,3.21,0,0-1.58,.29,.13,1.75,1.71,1.46,7.89,2.04,7.89,2.04,0,0-9.86,8.16-14.34,10.35-4.47,2.19-7.1,2.92-5.52,5.54,1.58,2.62,8.29,2.48,8.29,2.48,0,0,1.45,3.94,5.39,3.5,0,0-13.55,2.33-14.14,3.94-.59,1.6,0,2.48,0,2.48,0,0-3.62,1.89-2.7,3.5,.7,1.22,3,1.6,4.06,1.71-.94-.02-2.67,.23-1.69,2.52,1.32,3.06,11.71,6.27,11.71,6.27,0,0-8.81,3.64-15.13,0,0,0-2.24,1.02-.79,2.92,1.45,1.9,.79,2.33,.79,2.33,0,0-3.29-2.48-1.84,1.31,1.45,3.79,9.08,6.12,9.08,6.12,0,0-4.34,.73-3.03,3.06,1.32,2.33,6.84,5.1,12.89,5.69s14.21-1.6,14.21-1.6c0,0-5.52,2.92-1.71,4.52,3.81,1.6,8.16-2.04,8.16-2.04,0,0-.79,3.73,2.37,2.45,3.16-1.28,5.79-3.76,5.79-3.76,0,0,.99,5.5,2.96,4.18,1.97,1.32,2.96-4.18,2.96-4.18,0,0,2.63,2.48,5.79,3.76,3.16,1.28,2.37-2.45,2.37-2.45,0,0,4.34,3.64,8.15,2.04,3.81-1.6-1.71-4.52-1.71-4.52,0,0,8.15,2.19,14.21,1.6,6.05-.58,11.57-3.35,12.89-5.69,1.32-2.33-3.03-3.06-3.03-3.06,0,0,7.63-2.33,9.08-6.12,1.45-3.79-1.84-1.31-1.84-1.31Z" style="fill:#ebebeb;"></path></g><g><rect x="626.78" y="217.59" width="14.9" height="51.24" transform="translate(1268.46 486.42) rotate(180)" style="fill:#ebebeb;"></rect><path d="M690.75,217.42s-.73-.49,.88-2.6c1.61-2.11-.88-3.25-.88-3.25-7.04,4.07-16.88,0-16.88,0,0,0,11.59-3.58,13.06-6.99,1.1-2.55-.84-2.83-1.89-2.81,1.18-.12,3.75-.54,4.53-1.9,1.03-1.79-3.01-3.9-3.01-3.9,0,0,.66-.98,0-2.76-.66-1.79-15.78-4.39-15.78-4.39,4.4,.49,6.02-3.9,6.02-3.9,0,0,7.48,.16,9.24-2.76,1.76-2.93-1.17-3.74-6.16-6.18-4.99-2.44-16-11.55-16-11.55,0,0,6.9-.65,8.8-2.28,1.91-1.63,.15-1.95,.15-1.95,8.22,.81,5.43-3.58,5.43-3.58-11.01-3.42-16.88-10.9-16.88-10.9,0,0,5.14-1.14,7.78-3.58,2.64-2.44-2.2-3.09-2.2-3.09,0,0,9.69-1.3,4.11-4.88-4.24-2.72-11.02-6.38-13.13-7.48,2.31,.85,7.55-.17,7.55-.17,6.16-2.76,0-6.83,0-6.83-7.19-4.07-17.76-14.31-17.76-14.31,0,0,5.28,2.76,7.92,1.95,2.64-.81-2.94-4.07-2.94-4.07,0,0,2.79,.81,3.96,0,1.17-.81-3.08-4.55-3.08-4.55-6.33-4.11-14.12-14.9-17.39-19.53-3.26,4.63-11.06,15.42-17.39,19.53,0,0-4.26,3.74-3.08,4.55,1.17,.81,3.96,0,3.96,0,0,0-5.58,3.25-2.93,4.07,2.64,.81,7.92-1.95,7.92-1.95,0,0-10.57,10.25-17.76,14.31,0,0-6.16,4.07,0,6.83,0,0,5.24,1.02,7.55,.17-2.11,1.1-8.89,4.76-13.13,7.48-5.58,3.58,4.11,4.88,4.11,4.88,0,0-4.84,.65-2.2,3.09,2.64,2.44,7.78,3.58,7.78,3.58,0,0-5.87,7.48-16.88,10.9,0,0-2.79,4.39,5.43,3.58,0,0-1.76,.33,.15,1.95,1.91,1.63,8.81,2.28,8.81,2.28,0,0-11.01,9.11-16,11.55-4.99,2.44-7.92,3.25-6.16,6.18,1.76,2.93,9.25,2.76,9.25,2.76,0,0,1.61,4.39,6.02,3.9,0,0-15.12,2.6-15.78,4.39-.66,1.79,0,2.76,0,2.76,0,0-4.03,2.11-3.01,3.9,.78,1.36,3.34,1.78,4.53,1.9-1.05-.02-2.98,.26-1.89,2.81,1.47,3.42,13.06,6.99,13.06,6.99,0,0-9.83,4.07-16.88,0,0,0-2.49,1.14-.88,3.25,1.61,2.11,.88,2.6,.88,2.6,0,0-3.67-2.76-2.05,1.46,1.61,4.23,10.13,6.83,10.13,6.83,0,0-4.84,.81-3.38,3.42,1.47,2.6,7.63,5.69,14.38,6.34,6.75,.65,15.85-1.79,15.85-1.79,0,0-6.16,3.25-1.91,5.04,4.26,1.79,9.1-2.28,9.1-2.28,0,0-.88,4.16,2.64,2.73,3.52-1.43,6.46-4.2,6.46-4.2,0,0,1.1,6.13,3.3,4.67,2.2,1.47,3.3-4.67,3.3-4.67,0,0,2.94,2.76,6.46,4.2,3.52,1.43,2.64-2.73,2.64-2.73,0,0,4.84,4.07,9.1,2.28,4.26-1.79-1.91-5.04-1.91-5.04,0,0,9.1,2.44,15.85,1.79,6.75-.65,12.91-3.74,14.38-6.34,1.47-2.6-3.38-3.42-3.38-3.42,0,0,8.51-2.6,10.13-6.83,1.61-4.23-2.05-1.46-2.05-1.46Z" style="fill:#ebebeb;"></path></g><g><rect x="525.75" y="220.94" width="13.36" height="45.93" transform="translate(1064.85 487.8) rotate(180)" style="fill:#ebebeb;"></rect><path d="M583.09,220.79s-.66-.44,.79-2.33c1.45-1.9-.79-2.92-.79-2.92-6.31,3.64-15.13,0-15.13,0,0,0,10.39-3.21,11.71-6.27,.98-2.29-.75-2.54-1.69-2.52,1.06-.11,3.36-.49,4.06-1.71,.92-1.6-2.7-3.5-2.7-3.5,0,0,.59-.87,0-2.48-.59-1.6-14.14-3.94-14.14-3.94,3.95,.44,5.39-3.5,5.39-3.5,0,0,6.71,.15,8.29-2.48,1.58-2.62-1.05-3.35-5.52-5.54-4.47-2.19-14.34-10.35-14.34-10.35,0,0,6.18-.58,7.89-2.04,1.71-1.46,.13-1.75,.13-1.75,7.37,.73,4.87-3.21,4.87-3.21-9.87-3.06-15.13-9.77-15.13-9.77,0,0,4.6-1.02,6.97-3.21,2.37-2.19-1.97-2.77-1.97-2.77,0,0,8.68-1.17,3.68-4.37-3.8-2.44-9.88-5.72-11.77-6.7,2.07,.76,6.77-.15,6.77-.15,5.52-2.48,0-6.12,0-6.12-6.44-3.64-15.92-12.83-15.92-12.83,0,0,4.74,2.48,7.1,1.75,2.37-.73-2.63-3.64-2.63-3.64,0,0,2.5,.73,3.55,0,1.05-.73-2.76-4.08-2.76-4.08-5.67-3.68-12.66-13.35-15.58-17.51-2.92,4.15-9.91,13.82-15.58,17.51,0,0-3.81,3.35-2.76,4.08,1.05,.73,3.55,0,3.55,0,0,0-5,2.92-2.63,3.64,2.37,.73,7.1-1.75,7.1-1.75,0,0-9.47,9.18-15.92,12.83,0,0-5.52,3.64,0,6.12,0,0,4.7,.91,6.77,.15-1.89,.99-7.97,4.26-11.77,6.7-5,3.21,3.68,4.37,3.68,4.37,0,0-4.34,.58-1.97,2.77,2.37,2.19,6.97,3.21,6.97,3.21,0,0-5.26,6.71-15.13,9.77,0,0-2.5,3.94,4.87,3.21,0,0-1.58,.29,.13,1.75,1.71,1.46,7.89,2.04,7.89,2.04,0,0-9.86,8.16-14.34,10.35-4.47,2.19-7.1,2.92-5.52,5.54,1.58,2.62,8.29,2.48,8.29,2.48,0,0,1.45,3.94,5.39,3.5,0,0-13.55,2.33-14.14,3.94-.59,1.6,0,2.48,0,2.48,0,0-3.62,1.89-2.7,3.5,.7,1.22,3,1.6,4.06,1.71-.94-.02-2.67,.23-1.69,2.52,1.32,3.06,11.71,6.27,11.71,6.27,0,0-8.81,3.64-15.13,0,0,0-2.24,1.02-.79,2.92,1.45,1.9,.79,2.33,.79,2.33,0,0-3.29-2.48-1.84,1.31,1.45,3.79,9.08,6.12,9.08,6.12,0,0-4.34,.73-3.03,3.06,1.32,2.33,6.84,5.1,12.89,5.69s14.21-1.6,14.21-1.6c0,0-5.52,2.92-1.71,4.52,3.81,1.6,8.16-2.04,8.16-2.04,0,0-.79,3.73,2.37,2.45,3.16-1.28,5.79-3.76,5.79-3.76,0,0,.99,5.5,2.96,4.18,1.97,1.32,2.96-4.18,2.96-4.18,0,0,2.63,2.48,5.79,3.76,3.16,1.28,2.37-2.45,2.37-2.45,0,0,4.34,3.64,8.15,2.04,3.81-1.6-1.71-4.52-1.71-4.52,0,0,8.15,2.19,14.21,1.6,6.05-.58,11.57-3.35,12.89-5.69,1.32-2.33-3.03-3.06-3.03-3.06,0,0,7.63-2.33,9.08-6.12,1.45-3.79-1.84-1.31-1.84-1.31Z" style="fill:#ebebeb;"></path></g><path d="M453.09,223.53s-.57-.38,.68-2.02c1.25-1.64-.68-2.52-.68-2.52-5.45,3.15-13.07,0-13.07,0,0,0,8.98-2.77,10.11-5.42,.85-1.98-.65-2.19-1.46-2.18,.92-.1,2.9-.42,3.5-1.47,.8-1.39-2.33-3.02-2.33-3.02,0,0,.51-.76,0-2.14-.51-1.39-12.22-3.4-12.22-3.4,3.41,.38,4.66-3.02,4.66-3.02,0,0,5.79,.13,7.16-2.14,1.36-2.27-.91-2.9-4.77-4.79-3.86-1.89-12.39-8.94-12.39-8.94,0,0,5.34-.5,6.82-1.76,1.48-1.26,.11-1.51,.11-1.51,6.36,.63,4.2-2.77,4.2-2.77-8.52-2.64-13.07-8.44-13.07-8.44,0,0,3.98-.88,6.02-2.77,2.05-1.89-1.7-2.39-1.7-2.39,0,0,7.5-1.01,3.18-3.78-3.28-2.11-8.53-4.94-10.16-5.79,1.79,.66,5.85-.13,5.85-.13,4.77-2.14,0-5.29,0-5.29-5.57-3.15-13.75-11.08-13.75-11.08,0,0,4.09,2.14,6.14,1.51,2.05-.63-2.27-3.15-2.27-3.15,0,0,2.16,.63,3.07,0,.91-.63-2.39-3.53-2.39-3.53-4.9-3.18-10.94-11.54-13.46-15.12-2.53,3.59-8.56,11.94-13.46,15.12,0,0-3.29,2.9-2.39,3.53,.91,.63,3.07,0,3.07,0,0,0-4.32,2.52-2.27,3.15,2.05,.63,6.14-1.51,6.14-1.51,0,0-8.18,7.93-13.75,11.08,0,0-4.77,3.15,0,5.29,0,0,4.06,.79,5.85,.13-1.63,.85-6.88,3.68-10.16,5.79-4.32,2.77,3.18,3.78,3.18,3.78,0,0-3.75,.5-1.7,2.39,2.05,1.89,6.02,2.77,6.02,2.77,0,0-4.55,5.79-13.07,8.44,0,0-2.16,3.4,4.2,2.77,0,0-1.36,.25,.11,1.51,1.48,1.26,6.82,1.76,6.82,1.76,0,0-8.52,7.05-12.39,8.94-3.86,1.89-6.14,2.52-4.77,4.79,1.36,2.27,7.16,2.14,7.16,2.14,0,0,1.25,3.4,4.66,3.02,0,0-11.7,2.02-12.22,3.4-.51,1.39,0,2.14,0,2.14,0,0-3.12,1.64-2.33,3.02,.6,1.05,2.59,1.38,3.5,1.47-.81-.02-2.31,.2-1.46,2.18,1.14,2.64,10.11,5.42,10.11,5.42,0,0-7.61,3.15-13.07,0,0,0-1.93,.88-.68,2.52,1.25,1.64,.68,2.02,.68,2.02,0,0-2.84-2.14-1.59,1.13,1.25,3.27,7.84,5.29,7.84,5.29,0,0-3.75,.63-2.61,2.64,1.14,2.02,5.91,4.41,11.14,4.91s12.27-1.39,12.27-1.39c0,0-4.77,2.52-1.48,3.9,3.3,1.39,7.05-1.76,7.05-1.76,0,0-.68,3.22,2.05,2.12,2.73-1.11,5-3.25,5-3.25,0,0,.85,4.75,2.55,3.61,1.7,1.14,2.55-3.61,2.55-3.61,0,0,2.27,2.14,5,3.25,2.73,1.11,2.05-2.12,2.05-2.12,0,0,3.75,3.15,7.04,1.76,3.3-1.39-1.48-3.9-1.48-3.9,0,0,7.05,1.89,12.27,1.39s10-2.9,11.14-4.91c1.14-2.02-2.61-2.64-2.61-2.64,0,0,6.59-2.01,7.84-5.29,1.25-3.27-1.59-1.13-1.59-1.13Z" style="fill:#ebebeb;"></path><path d="M167.12,133.61c-.07-.03-.14-.06-.21-.1,.07,.02,.14,.05,.21,.1Z"></path><g><rect x="265.07" y="215.07" width="15.07" height="51.8" transform="translate(545.21 481.93) rotate(180)" style="fill:#ebebeb;"></rect><path d="M329.75,214.9s-.74-.49,.89-2.63c1.63-2.14-.89-3.29-.89-3.29-7.12,4.11-17.06,0-17.06,0,0,0,11.72-3.62,13.2-7.07,1.11-2.58-.85-2.86-1.91-2.84,1.2-.12,3.79-.55,4.58-1.92,1.04-1.81-3.04-3.95-3.04-3.95,0,0,.67-.99,0-2.8-.67-1.81-15.95-4.44-15.95-4.44,4.45,.49,6.08-3.95,6.08-3.95,0,0,7.57,.16,9.35-2.8,1.78-2.96-1.19-3.78-6.23-6.25-5.04-2.47-16.17-11.67-16.17-11.67,0,0,6.97-.66,8.9-2.3,1.93-1.64,.15-1.97,.15-1.97,8.31,.82,5.49-3.62,5.49-3.62-11.13-3.45-17.06-11.02-17.06-11.02,0,0,5.19-1.15,7.86-3.62,2.67-2.47-2.23-3.12-2.23-3.12,0,0,9.79-1.32,4.15-4.93-4.29-2.75-11.14-6.45-13.27-7.56,2.34,.86,7.63-.17,7.63-.17,6.23-2.8,0-6.91,0-6.91-7.27-4.11-17.95-14.47-17.95-14.47,0,0,5.34,2.8,8.01,1.97,2.67-.82-2.97-4.11-2.97-4.11,0,0,2.82,.82,4.01,0,1.19-.82-3.12-4.6-3.12-4.6-6.4-4.16-14.28-15.06-17.58-19.75-3.3,4.68-11.18,15.59-17.58,19.75,0,0-4.3,3.78-3.12,4.6,1.19,.82,4.01,0,4.01,0,0,0-5.64,3.29-2.97,4.11,2.67,.82,8.01-1.97,8.01-1.97,0,0-10.68,10.36-17.95,14.47,0,0-6.23,4.11,0,6.91,0,0,5.3,1.03,7.63,.17-2.13,1.11-8.99,4.81-13.27,7.56-5.64,3.62,4.15,4.93,4.15,4.93,0,0-4.9,.66-2.22,3.12,2.67,2.47,7.86,3.62,7.86,3.62,0,0-5.93,7.56-17.06,11.02,0,0-2.82,4.44,5.49,3.62,0,0-1.78,.33,.15,1.97,1.93,1.64,8.9,2.3,8.9,2.3,0,0-11.13,9.21-16.17,11.67-5.04,2.47-8.01,3.29-6.23,6.25,1.78,2.96,9.35,2.8,9.35,2.8,0,0,1.63,4.44,6.08,3.95,0,0-15.28,2.63-15.95,4.44-.67,1.81,0,2.8,0,2.8,0,0-4.08,2.14-3.04,3.95,.79,1.38,3.38,1.8,4.58,1.92-1.06-.02-3.01,.26-1.91,2.84,1.48,3.45,13.2,7.07,13.2,7.07,0,0-9.94,4.11-17.06,0,0,0-2.52,1.15-.89,3.29,1.63,2.14,.89,2.63,.89,2.63,0,0-3.71-2.8-2.08,1.48,1.63,4.28,10.24,6.91,10.24,6.91,0,0-4.9,.82-3.41,3.45,1.48,2.63,7.71,5.76,14.54,6.41,6.82,.66,16.02-1.81,16.02-1.81,0,0-6.23,3.29-1.93,5.1,4.3,1.81,9.2-2.3,9.2-2.3,0,0-.89,4.21,2.67,2.76,3.56-1.45,6.53-4.24,6.53-4.24,0,0,1.11,6.2,3.33,4.72,2.22,1.48,3.34-4.72,3.34-4.72,0,0,2.97,2.8,6.53,4.24,3.56,1.45,2.67-2.76,2.67-2.76,0,0,4.9,4.11,9.2,2.3,4.3-1.81-1.93-5.1-1.93-5.1,0,0,9.2,2.47,16.02,1.81,6.82-.66,13.05-3.78,14.54-6.41,1.48-2.63-3.41-3.45-3.41-3.45,0,0,8.6-2.63,10.24-6.91,1.63-4.27-2.08-1.48-2.08-1.48Z" style="fill:#ebebeb;"></path><path d="M296.31,116.57c-.08-.04-.16-.07-.23-.11,.08,.02,.16,.06,.23,.11Z"></path></g><g><rect x="346.68" y="233.02" width="9.79" height="33.61" transform="translate(703.16 499.65) rotate(180)" style="fill:#e0e0e0;"></rect><path d="M388.72,232.91s-.48-.32,.58-1.71c1.06-1.39-.58-2.13-.58-2.13-4.63,2.67-11.09,0-11.09,0,0,0,7.62-2.35,8.58-4.59,.72-1.67-.55-1.86-1.24-1.85,.78-.08,2.46-.36,2.97-1.25,.68-1.17-1.98-2.56-1.98-2.56,0,0,.43-.64,0-1.81-.43-1.17-10.37-2.88-10.37-2.88,2.89,.32,3.95-2.56,3.95-2.56,0,0,4.92,.11,6.08-1.81,1.16-1.92-.77-2.45-4.05-4.05-3.28-1.6-10.51-7.57-10.51-7.57,0,0,4.53-.43,5.79-1.49,1.25-1.07,.1-1.28,.1-1.28,5.4,.53,3.57-2.35,3.57-2.35-7.23-2.24-11.09-7.15-11.09-7.15,0,0,3.38-.75,5.11-2.35,1.74-1.6-1.45-2.03-1.45-2.03,0,0,6.36-.85,2.7-3.2-2.79-1.78-7.24-4.18-8.63-4.9,1.52,.56,4.96-.11,4.96-.11,4.05-1.81,0-4.48,0-4.48-4.73-2.67-11.67-9.39-11.67-9.39,0,0,3.47,1.81,5.21,1.28,1.74-.53-1.93-2.67-1.93-2.67,0,0,1.83,.53,2.6,0,.77-.53-2.03-2.99-2.03-2.99-4.16-2.7-9.28-9.77-11.43-12.81-2.14,3.04-7.27,10.12-11.43,12.81,0,0-2.8,2.45-2.02,2.99,.77,.53,2.6,0,2.6,0,0,0-3.66,2.13-1.93,2.67,1.74,.53,5.21-1.28,5.21-1.28,0,0-6.94,6.72-11.67,9.39,0,0-4.05,2.67,0,4.48,0,0,3.44,.67,4.96,.11-1.39,.72-5.84,3.12-8.63,4.9-3.66,2.35,2.7,3.2,2.7,3.2,0,0-3.18,.43-1.45,2.03,1.74,1.6,5.11,2.35,5.11,2.35,0,0-3.86,4.91-11.09,7.15,0,0-1.83,2.88,3.57,2.35,0,0-1.16,.21,.1,1.28,1.25,1.07,5.79,1.49,5.79,1.49,0,0-7.23,5.97-10.51,7.57-3.28,1.6-5.21,2.13-4.05,4.05,1.16,1.92,6.08,1.81,6.08,1.81,0,0,1.06,2.88,3.95,2.56,0,0-9.93,1.71-10.37,2.88-.43,1.17,0,1.81,0,1.81,0,0-2.65,1.39-1.98,2.56,.51,.89,2.2,1.17,2.97,1.25-.69-.01-1.96,.17-1.24,1.85,.96,2.24,8.58,4.59,8.58,4.59,0,0-6.46,2.67-11.09,0,0,0-1.64,.75-.58,2.13,1.06,1.39,.58,1.71,.58,1.71,0,0-2.41-1.81-1.35,.96,1.06,2.77,6.65,4.48,6.65,4.48,0,0-3.18,.53-2.22,2.24,.96,1.71,5.01,3.73,9.45,4.16,4.44,.43,10.42-1.17,10.42-1.17,0,0-4.05,2.13-1.25,3.31,2.8,1.17,5.98-1.49,5.98-1.49,0,0-.58,2.73,1.74,1.79,2.31-.94,4.24-2.75,4.24-2.75,0,0,.72,4.02,2.17,3.06,1.45,.96,2.17-3.06,2.17-3.06,0,0,1.93,1.81,4.24,2.75,2.31,.94,1.74-1.79,1.74-1.79,0,0,3.18,2.67,5.98,1.49,2.8-1.17-1.25-3.31-1.25-3.31,0,0,5.98,1.6,10.41,1.17,4.44-.43,8.49-2.45,9.45-4.16,.96-1.71-2.22-2.24-2.22-2.24,0,0,5.59-1.71,6.65-4.48,1.06-2.77-1.35-.96-1.35-.96Z" style="fill:#e0e0e0;"></path><path d="M366.99,169.12c-.05-.02-.1-.05-.15-.07,.05,.01,.1,.04,.15,.07Z" style="fill:#e0e0e0;"></path></g><g><rect x="61.19" y="237.58" width="8.41" height="28.91" transform="translate(130.79 504.07) rotate(180)" style="fill:#ebebeb;"></rect><path d="M97.28,237.49s-.41-.28,.5-1.47c.91-1.19-.5-1.84-.5-1.84-3.97,2.29-9.52,0-9.52,0,0,0,6.54-2.02,7.37-3.95,.62-1.44-.47-1.6-1.06-1.59,.67-.07,2.11-.31,2.55-1.07,.58-1.01-1.7-2.2-1.7-2.2,0,0,.37-.55,0-1.56-.37-1.01-8.9-2.48-8.9-2.48,2.48,.28,3.39-2.2,3.39-2.2,0,0,4.22,.09,5.22-1.56,.99-1.65-.66-2.11-3.48-3.49-2.81-1.38-9.02-6.52-9.02-6.52,0,0,3.89-.37,4.97-1.28,1.08-.92,.08-1.1,.08-1.1,4.64,.46,3.06-2.02,3.06-2.02-6.21-1.93-9.52-6.15-9.52-6.15,0,0,2.9-.64,4.39-2.02,1.49-1.38-1.24-1.74-1.24-1.74,0,0,5.46-.73,2.32-2.75-2.39-1.53-6.22-3.6-7.41-4.22,1.3,.48,4.26-.09,4.26-.09,3.48-1.56,0-3.85,0-3.85-4.06-2.29-10.02-8.07-10.02-8.07,0,0,2.98,1.56,4.47,1.1,1.49-.46-1.66-2.29-1.66-2.29,0,0,1.57,.46,2.24,0,.66-.46-1.74-2.57-1.74-2.57-3.57-2.32-7.97-8.41-9.81-11.02-1.84,2.61-6.24,8.7-9.81,11.02,0,0-2.4,2.11-1.74,2.57s2.24,0,2.24,0c0,0-3.15,1.84-1.66,2.29,1.49,.46,4.47-1.1,4.47-1.1,0,0-5.96,5.78-10.02,8.07,0,0-3.48,2.29,0,3.85,0,0,2.96,.57,4.26,.09-1.19,.62-5.01,2.68-7.41,4.22-3.15,2.02,2.32,2.75,2.32,2.75,0,0-2.73,.37-1.24,1.74,1.49,1.38,4.39,2.02,4.39,2.02,0,0-3.31,4.22-9.52,6.15,0,0-1.57,2.48,3.06,2.02,0,0-.99,.18,.08,1.1,1.08,.92,4.97,1.28,4.97,1.28,0,0-6.21,5.14-9.02,6.52-2.81,1.38-4.47,1.84-3.48,3.49,.99,1.65,5.22,1.56,5.22,1.56,0,0,.91,2.48,3.39,2.2,0,0-8.53,1.47-8.9,2.48-.37,1.01,0,1.56,0,1.56,0,0-2.28,1.19-1.7,2.2,.44,.77,1.89,1,2.55,1.07-.59-.01-1.68,.15-1.06,1.59,.83,1.93,7.37,3.95,7.37,3.95,0,0-5.55,2.29-9.52,0,0,0-1.41,.64-.5,1.84,.91,1.19,.5,1.47,.5,1.47,0,0-2.07-1.56-1.16,.83,.91,2.39,5.71,3.85,5.71,3.85,0,0-2.73,.46-1.9,1.93,.83,1.47,4.31,3.21,8.11,3.58,3.81,.37,8.94-1.01,8.94-1.01,0,0-3.48,1.84-1.08,2.84,2.4,1.01,5.13-1.28,5.13-1.28,0,0-.5,2.35,1.49,1.54,1.99-.81,3.64-2.37,3.64-2.37,0,0,.62,3.46,1.86,2.63,1.24,.83,1.86-2.63,1.86-2.63,0,0,1.66,1.56,3.64,2.37,1.99,.81,1.49-1.54,1.49-1.54,0,0,2.73,2.29,5.13,1.28,2.4-1.01-1.08-2.84-1.08-2.84,0,0,5.13,1.38,8.94,1.01,3.81-.37,7.29-2.11,8.11-3.58,.83-1.47-1.9-1.93-1.9-1.93,0,0,4.8-1.47,5.71-3.85,.91-2.39-1.16-.83-1.16-.83Z" style="fill:#e0e0e0;"></path><path d="M78.63,182.61s-.09-.04-.13-.06c.05,.01,.09,.03,.13,.06Z"></path></g><g><rect x="684.33" y="237.58" width="8.41" height="28.91" transform="translate(1377.07 504.07) rotate(180)" style="fill:#ebebeb;"></rect><path d="M720.42,237.49s-.41-.28,.5-1.47c.91-1.19-.5-1.84-.5-1.84-3.97,2.29-9.52,0-9.52,0,0,0,6.54-2.02,7.37-3.95,.62-1.44-.47-1.6-1.06-1.59,.67-.07,2.11-.31,2.55-1.07,.58-1.01-1.7-2.2-1.7-2.2,0,0,.37-.55,0-1.56-.37-1.01-8.9-2.48-8.9-2.48,2.48,.28,3.39-2.2,3.39-2.2,0,0,4.22,.09,5.22-1.56,.99-1.65-.66-2.11-3.48-3.49-2.81-1.38-9.02-6.52-9.02-6.52,0,0,3.89-.37,4.97-1.28,1.08-.92,.08-1.1,.08-1.1,4.64,.46,3.06-2.02,3.06-2.02-6.21-1.93-9.52-6.15-9.52-6.15,0,0,2.9-.64,4.39-2.02,1.49-1.38-1.24-1.74-1.24-1.74,0,0,5.46-.73,2.32-2.75-2.39-1.53-6.22-3.6-7.41-4.22,1.3,.48,4.26-.09,4.26-.09,3.48-1.56,0-3.85,0-3.85-4.06-2.29-10.02-8.07-10.02-8.07,0,0,2.98,1.56,4.47,1.1,1.49-.46-1.66-2.29-1.66-2.29,0,0,1.57,.46,2.24,0,.66-.46-1.74-2.57-1.74-2.57-3.57-2.32-7.97-8.41-9.81-11.02-1.84,2.61-6.24,8.7-9.81,11.02,0,0-2.4,2.11-1.74,2.57s2.24,0,2.24,0c0,0-3.15,1.84-1.66,2.29,1.49,.46,4.47-1.1,4.47-1.1,0,0-5.96,5.78-10.02,8.07,0,0-3.48,2.29,0,3.85,0,0,2.96,.57,4.26,.09-1.19,.62-5.01,2.68-7.41,4.22-3.15,2.02,2.32,2.75,2.32,2.75,0,0-2.73,.37-1.24,1.74,1.49,1.38,4.39,2.02,4.39,2.02,0,0-3.31,4.22-9.52,6.15,0,0-1.57,2.48,3.06,2.02,0,0-.99,.18,.08,1.1,1.08,.92,4.97,1.28,4.97,1.28,0,0-6.21,5.14-9.02,6.52-2.81,1.38-4.47,1.84-3.48,3.49,.99,1.65,5.22,1.56,5.22,1.56,0,0,.91,2.48,3.39,2.2,0,0-8.53,1.47-8.9,2.48-.37,1.01,0,1.56,0,1.56,0,0-2.28,1.19-1.7,2.2,.44,.77,1.89,1,2.55,1.07-.59-.01-1.68,.15-1.06,1.59,.83,1.93,7.37,3.95,7.37,3.95,0,0-5.55,2.29-9.52,0,0,0-1.41,.64-.5,1.84,.91,1.19,.5,1.47,.5,1.47,0,0-2.07-1.56-1.16,.83,.91,2.39,5.71,3.85,5.71,3.85,0,0-2.73,.46-1.9,1.93,.83,1.47,4.31,3.21,8.11,3.58,3.81,.37,8.94-1.01,8.94-1.01,0,0-3.48,1.84-1.08,2.84,2.4,1.01,5.13-1.28,5.13-1.28,0,0-.5,2.35,1.49,1.54,1.99-.81,3.64-2.37,3.64-2.37,0,0,.62,3.46,1.86,2.63,1.24,.83,1.86-2.63,1.86-2.63,0,0,1.66,1.56,3.64,2.37,1.99,.81,1.49-1.54,1.49-1.54,0,0,2.73,2.29,5.13,1.28,2.4-1.01-1.08-2.84-1.08-2.84,0,0,5.13,1.38,8.94,1.01,3.81-.37,7.29-2.11,8.11-3.58,.83-1.47-1.9-1.93-1.9-1.93,0,0,4.8-1.47,5.71-3.85,.91-2.39-1.16-.83-1.16-.83Z" style="fill:#e0e0e0;"></path><path d="M701.76,182.61s-.09-.04-.13-.06c.05,.01,.09,.03,.13,.06Z"></path></g><g><rect x="483.19" y="237.58" width="8.41" height="28.91" transform="translate(974.78 504.07) rotate(180)" style="fill:#ebebeb;"></rect><path d="M519.28,237.49s-.41-.28,.5-1.47c.91-1.19-.5-1.84-.5-1.84-3.97,2.29-9.52,0-9.52,0,0,0,6.54-2.02,7.37-3.95,.62-1.44-.47-1.6-1.06-1.59,.67-.07,2.11-.31,2.55-1.07,.58-1.01-1.7-2.2-1.7-2.2,0,0,.37-.55,0-1.56-.37-1.01-8.9-2.48-8.9-2.48,2.48,.28,3.39-2.2,3.39-2.2,0,0,4.22,.09,5.22-1.56,.99-1.65-.66-2.11-3.48-3.49-2.81-1.38-9.02-6.52-9.02-6.52,0,0,3.89-.37,4.97-1.28,1.08-.92,.08-1.1,.08-1.1,4.64,.46,3.06-2.02,3.06-2.02-6.21-1.93-9.52-6.15-9.52-6.15,0,0,2.9-.64,4.39-2.02,1.49-1.38-1.24-1.74-1.24-1.74,0,0,5.46-.73,2.32-2.75-2.39-1.53-6.22-3.6-7.41-4.22,1.3,.48,4.26-.09,4.26-.09,3.48-1.56,0-3.85,0-3.85-4.06-2.29-10.02-8.07-10.02-8.07,0,0,2.98,1.56,4.47,1.1,1.49-.46-1.66-2.29-1.66-2.29,0,0,1.57,.46,2.24,0s-1.74-2.57-1.74-2.57c-3.57-2.32-7.97-8.41-9.81-11.02-1.84,2.61-6.24,8.7-9.81,11.02,0,0-2.4,2.11-1.74,2.57,.66,.46,2.24,0,2.24,0,0,0-3.15,1.84-1.66,2.29,1.49,.46,4.47-1.1,4.47-1.1,0,0-5.96,5.78-10.02,8.07,0,0-3.48,2.29,0,3.85,0,0,2.96,.57,4.26,.09-1.19,.62-5.01,2.68-7.41,4.22-3.15,2.02,2.32,2.75,2.32,2.75,0,0-2.73,.37-1.24,1.74,1.49,1.38,4.39,2.02,4.39,2.02,0,0-3.31,4.22-9.52,6.15,0,0-1.57,2.48,3.06,2.02,0,0-.99,.18,.08,1.1,1.08,.92,4.97,1.28,4.97,1.28,0,0-6.21,5.14-9.02,6.52-2.81,1.38-4.47,1.84-3.48,3.49,.99,1.65,5.22,1.56,5.22,1.56,0,0,.91,2.48,3.39,2.2,0,0-8.53,1.47-8.9,2.48-.37,1.01,0,1.56,0,1.56,0,0-2.28,1.19-1.7,2.2,.44,.77,1.89,1,2.55,1.07-.59-.01-1.68,.15-1.06,1.59,.83,1.93,7.37,3.95,7.37,3.95,0,0-5.55,2.29-9.52,0,0,0-1.41,.64-.5,1.84,.91,1.19,.5,1.47,.5,1.47,0,0-2.07-1.56-1.16,.83,.91,2.39,5.71,3.85,5.71,3.85,0,0-2.73,.46-1.9,1.93,.83,1.47,4.31,3.21,8.11,3.58,3.81,.37,8.94-1.01,8.94-1.01,0,0-3.48,1.84-1.08,2.84,2.4,1.01,5.13-1.28,5.13-1.28,0,0-.5,2.35,1.49,1.54,1.99-.81,3.64-2.37,3.64-2.37,0,0,.62,3.46,1.86,2.63,1.24,.83,1.86-2.63,1.86-2.63,0,0,1.66,1.56,3.64,2.37,1.99,.81,1.49-1.54,1.49-1.54,0,0,2.73,2.29,5.13,1.28,2.4-1.01-1.08-2.84-1.08-2.84,0,0,5.13,1.38,8.94,1.01,3.81-.37,7.29-2.11,8.11-3.58,.83-1.47-1.9-1.93-1.9-1.93,0,0,4.8-1.47,5.71-3.85,.91-2.39-1.16-.83-1.16-.83Z" style="fill:#e0e0e0;"></path><path d="M500.62,182.61s-.09-.04-.13-.06c.05,.01,.09,.03,.13,.06Z"></path></g><g><path d="M342.8,80.92s-.56-.19-1.59-.42c-1.03-.23-2.57-.43-4.45-.17-1.86,.25-4.06,1-5.99,2.58-1.92,1.56-3.57,3.92-4.23,6.71l-.02,.07-.12,.48-.18-.46c-1.08-2.66-2.99-4.77-5.06-6.11-2.08-1.37-4.32-1.93-6.18-2.06-1.88-.13-3.4,.14-4.42,.4-1.02,.27-1.56,.51-1.57,.48,0-.01,.13-.07,.38-.19,.26-.11,.64-.26,1.15-.41,1.01-.31,2.55-.61,4.47-.51,1.9,.1,4.19,.65,6.33,2.04,2.13,1.36,4.1,3.52,5.2,6.24l-.31,.02,.02-.08c.68-2.88,2.37-5.29,4.36-6.87,1.99-1.61,4.25-2.36,6.15-2.58,1.91-.23,3.47,0,4.5,.28,.52,.13,.91,.27,1.17,.37,.26,.1,.4,.16,.39,.17Z" style="fill:#e0e0e0;"></path><path d="M372.25,90.72s-.31-.09-.88-.2c-.57-.12-1.41-.22-2.43-.07-1.01,.14-2.21,.56-3.26,1.42-1.05,.85-1.94,2.14-2.3,3.66v.04l-.13,.48-.18-.45c-.59-1.45-1.63-2.6-2.75-3.33-1.13-.75-2.35-1.06-3.37-1.14-1.03-.08-1.86,.06-2.42,.2-.56,.14-.86,.26-.87,.23,0-.01,.07-.05,.21-.12,.14-.07,.35-.15,.63-.24,.56-.18,1.41-.36,2.47-.31,1.05,.05,2.33,.35,3.51,1.12,1.18,.75,2.28,1.95,2.89,3.46l-.31,.02v-.04c.39-1.6,1.33-2.94,2.44-3.82,1.11-.89,2.37-1.3,3.42-1.42,1.06-.12,1.92,.02,2.49,.17,.29,.08,.5,.15,.64,.22,.14,.06,.21,.1,.21,.11Z" style="fill:#e0e0e0;"></path><path d="M355.85,41.24s-.3,.35-.85,.97c-.55,.62-1.3,1.56-2.09,2.82-1.58,2.48-3.15,6.43-3.1,10.96v.14l-.32,.03c-.33-2.21-1.07-4.24-2-5.94-.93-1.7-2.02-3.08-3.05-4.12-1.03-1.04-1.97-1.78-2.65-2.24-.68-.47-1.07-.7-1.05-.73,0,0,.11,.04,.3,.14,.19,.11,.48,.25,.82,.48,.7,.44,1.67,1.15,2.74,2.19,1.06,1.03,2.19,2.42,3.15,4.14,.96,1.72,1.72,3.78,2.06,6.03l-.32,.03v-.14c-.05-4.61,1.59-8.61,3.23-11.09,.82-1.25,1.6-2.18,2.19-2.78,.28-.31,.53-.52,.69-.67,.16-.15,.25-.22,.26-.21Z" style="fill:#e0e0e0;"></path></g></g><g id="freepik--Floor--inject-13"><path d="M735.99,266.87c0,.14-161.64,.26-360.98,.26s-361.01-.12-361.01-.26,161.6-.26,361.01-.26,360.98,.12,360.98,.26Z" style="fill:#263238;"></path></g><g id="freepik--Car--inject-13"><ellipse cx="372.24" cy="424.68" rx="331.68" ry="7.68" style="fill:#ebebeb;"></ellipse><g><path d="M214.69,279.6s54.86-31.22,72.44-39.79c17.58-8.57,37.48-14.41,37.48-14.41l9.19,4-48.38,26.33-51.75,30.01-18.98-6.14Z" style="fill:#455a64;"></path><polygon points="209.03 275.29 221.01 276.01 238.67 280.16 223.85 283.58 210.52 278.64 209.03 275.29" style="fill:#263238;"></polygon><path d="M543.91,228.19s67.21,30.2,87.03,34.24l-5.77,12.45-33.56-8.84-27.04-18.13-27.35-11.41s-7.07-8.06-6.15-8.31c.92-.25,12.83,0,12.83,0Z" style="fill:#455a64;"></path><path d="M90.62,387.27c5.25,1.69,394.07,0,394.07,0l165.79-10.53-4.93-64.78-521.73-.79-37.45,24.85v48.19" style="fill:#407BFF;"></path><path d="M90.62,387.27c5.25,1.69,394.07,0,394.07,0l165.79-10.53-4.93-64.78-521.73-.79-37.45,24.85v48.19" style="opacity:.3;"></path><path d="M693.24,311.17s-.83-14.09-.83-18.22-4.35-13.6-4.35-13.6l1.61-9.69c0-3.12-7.35-1.81-10.47-1.87-25.76-.48-48.25-5.36-48.25-5.36l-5.77,5.36c-11.55-2.47-86.21-36.71-86.21-36.71,0,0,3.71-2.47,4.95-2.89,1.24-.41-23.1-9.49-103.53-13.61-80.44-4.12-117.97,11.55-117.97,11.55l8.66,2.89c-33.82,8.25-92.4,51.15-92.4,51.15-27.64,0-30.52-5.77-30.52-5.77-70.95,3.71-134.88,23.51-148.5,29.7-6.81,3.09-15.32,7.18-18.26,11.4-2.94,4.23-2.03,8.38-2.36,13.76-.16,2.67-4.75,10.98-5,16.2-.8,16.43,3.55,34.79,3.55,34.79,.03,.91-10.18,5.01-6.09,6.24,12.64,3.81,51.11,7.22,58.28,7.53,1.26,.05,3.83,.1,7.38,.14-1.55-5.24-2.39-10.78-2.39-16.52,0-32.16,26.07-58.23,58.23-58.23s58.23,26.07,58.23,58.23c0,5.69-.83,11.19-2.35,16.39,.18,0,.36,0,.54,0,27.22-.41,256.57-.82,302.77-2.48,.57-.02,1.15-.04,1.73-.06-1.08-4.44-1.67-9.07-1.67-13.84,0-32.16,26.07-58.23,58.23-58.23s58.23,26.07,58.23,58.23c0,3.04-.23,6.03-.68,8.94,.17,0,.32,0,.49,.02,13.2,.41,57.75-7.84,57.75-7.84l14.85-15.67,3.9-34.63-11.73-17.27Z" style="fill:#407BFF;"></path><path d="M243.38,295.34s-.13,.02-.38,.03c-.28,0-.64,.02-1.11,.03-1,.02-2.43,.04-4.26,.07-3.7,.08-9.05,.04-15.66,.27-13.22,.28-31.48,1.07-51.59,2.75-20.11,1.71-38.25,3.97-51.31,6-6.54,.98-11.81,1.93-15.45,2.57-1.79,.33-3.2,.6-4.19,.78-.46,.08-.82,.15-1.09,.2-.25,.04-.37,.06-.37,.05,0,0,.12-.04,.36-.11,.27-.06,.63-.15,1.08-.25,.95-.22,2.36-.51,4.17-.88,3.63-.71,8.89-1.71,15.43-2.74,13.06-2.13,31.2-4.45,51.33-6.16,20.12-1.69,38.39-2.42,51.62-2.6,6.61-.18,11.97-.09,15.67-.11,1.83,.01,3.26,.02,4.26,.02l1.11,.02c.25,0,.38,.02,.38,.02Z" style="fill:#263238;"></path><path d="M74.39,384.2s-7.79-25.98-11.69-26.31c-3.9-.32-17.54-1.62-18.84,0s0,19.81,0,19.81l30.53,6.5Z" style="fill:#263238;"></path><path d="M106.86,341.34s-.56,.07-1.57,.1c-1.1,.02-2.55,.05-4.28,.08-3.62,.05-8.61,.08-14.13,.08-1.38,0-2.73,0-4.03,0-.65,0-1.29,0-1.94-.05-.64-.09-1.27-.21-1.84-.45-2.35-.87-3.83-2.8-4.42-4.53-.3-.88-.42-1.72-.41-2.45,0-.72,.03-1.34,.04-1.84,.03-1.01,.07-1.57,.1-1.57s.07,.56,.1,1.57c.08,1-.12,2.51,.52,4.17,.6,1.63,2.04,3.42,4.24,4.21,.54,.22,1.12,.32,1.72,.4,.59,.05,1.23,.04,1.89,.04,1.3,0,2.65,0,4.03,0,5.52,0,10.51,.03,14.13,.08,1.74,.03,3.18,.06,4.28,.08,1.01,.03,1.57,.07,1.57,.1Z" style="fill:#263238;"></path><path d="M258.36,280.64s47.55-30.55,67.9-39.21c20.35-8.66,39.62-12.34,51.96-13.64,12.34-1.3,30.96-1.17,42.22-1.34,11.26-.17,48.28,2.43,61.27,4.16,12.99,1.73,27.99,3.46,46.14,11.91,18.16,8.44,48.03,28.36,48.03,30.31s-1.52,1.08-1.52,1.08l-316.01,6.74Z" style="fill:#455a64;"></path><polygon points="410.73 226.44 395.32 277.72 420.2 277.19 426.41 226.44 410.73 226.44" style="fill:#263238;"></polygon><g><path d="M386.5,304.75c0,3.94-3.19,7.13-7.13,7.13s-7.13-3.19-7.13-7.13,3.19-7.13,7.13-7.13,7.13,3.19,7.13,7.13Z" style="opacity:.3;"></path><g><rect x="363.25" y="301.55" width="31.73" height="6.6" rx="3.15" ry="3.15" style="fill:#407BFF;"></rect><path d="M391.83,308.15s.25-.02,.7-.14c.44-.12,1.12-.4,1.66-1.09,.27-.34,.49-.79,.6-1.3,.08-.51,.1-1.13-.07-1.71-.3-1.18-1.55-2.3-3.14-2.18-6.5,.02-15.37,.05-25.18,.08-1.14-.01-2.21,.71-2.65,1.72-.23,.51-.28,1.04-.24,1.63,.02,.54,.22,1.07,.52,1.5,.62,.9,1.68,1.32,2.76,1.24,1.11,0,2.21,0,3.27,0,4.25,.02,8.08,.04,11.32,.06,3.18,.03,5.77,.06,7.63,.08,.86,.02,1.55,.04,2.08,.05,.47,.02,.72,.03,.72,.05s-.25,.04-.72,.05c-.53,.01-1.22,.03-2.08,.05-1.86,.02-4.45,.05-7.63,.08-3.24,.02-7.07,.03-11.32,.06-1.07,0-2.16,0-3.27,0-.54,.02-1.2-.03-1.75-.28-.56-.25-1.06-.65-1.43-1.16-.36-.51-.59-1.13-.62-1.77-.04-.59,.01-1.28,.28-1.86,.51-1.2,1.78-2.05,3.12-2.04,9.81,.03,18.69,.06,25.18,.08,.83-.04,1.66,.23,2.25,.71,.6,.47,1,1.12,1.16,1.76,.16,.66,.13,1.27,.03,1.83-.13,.56-.39,1.02-.68,1.38-.61,.72-1.33,.97-1.8,1.07-.48,.09-.73,.03-.73,.03Z" style="fill:#263238;"></path></g></g><g><path d="M525.23,304.83c0,3.94-3.19,7.13-7.13,7.13s-7.13-3.19-7.13-7.13,3.19-7.13,7.13-7.13,7.13,3.19,7.13,7.13Z" style="opacity:.3;"></path><g><rect x="501.99" y="301.63" width="31.73" height="6.6" rx="3.15" ry="3.15" style="fill:#407BFF;"></rect><path d="M530.56,308.23s.25-.02,.7-.14c.44-.12,1.12-.4,1.66-1.09,.27-.34,.49-.79,.6-1.3,.08-.51,.1-1.12-.07-1.71-.3-1.18-1.55-2.3-3.14-2.18-6.5,.02-15.37,.05-25.18,.08-1.14-.01-2.21,.71-2.65,1.72-.23,.51-.28,1.04-.24,1.63,.02,.54,.22,1.07,.52,1.5,.62,.9,1.68,1.32,2.76,1.24,1.11,0,2.21,0,3.27,0,4.25,.02,8.08,.04,11.32,.06,3.18,.03,5.77,.06,7.63,.08,.86,.02,1.55,.04,2.08,.05,.47,.02,.72,.03,.72,.05s-.25,.04-.72,.05c-.53,.01-1.22,.03-2.08,.05-1.86,.02-4.45,.05-7.63,.08-3.24,.02-7.07,.03-11.32,.06-1.07,0-2.16,0-3.27,0-.54,.02-1.2-.03-1.75-.28-.56-.25-1.06-.65-1.43-1.16-.36-.51-.59-1.13-.62-1.77-.04-.59,.01-1.28,.28-1.86,.51-1.2,1.78-2.05,3.12-2.04,9.81,.03,18.69,.06,25.18,.08,.83-.04,1.66,.23,2.25,.71,.6,.47,1,1.12,1.16,1.76,.16,.66,.13,1.27,.03,1.83-.13,.56-.39,1.02-.68,1.38-.61,.72-1.33,.97-1.8,1.07-.48,.09-.73,.03-.73,.03Z" style="fill:#263238;"></path></g></g><path d="M656.9,292.2s-.36,.02-1.07,.03c-.72,0-1.76,.02-3.13,.03-2.77,.02-6.83,.04-12.05,.07-10.48,.07-25.62,.16-44.32,.28-37.43,.33-89.13,.79-146.23,1.3-57.12,.54-108.83,.98-146.25,1.15-18.71,.05-33.85,.09-44.32,.11-5.22-.01-9.28-.02-12.05-.03-1.37,0-2.42-.02-3.13-.02-.71,0-1.07-.02-1.07-.02,0,0,.36-.02,1.07-.03,.72,0,1.76-.02,3.13-.03,2.77-.02,6.83-.04,12.05-.07,10.48-.07,25.61-.16,44.32-.28,37.43-.33,89.14-.79,146.25-1.3,57.1-.54,108.8-.98,146.23-1.15,18.71-.05,33.85-.09,44.32-.11,5.23,.01,9.28,.02,12.05,.03,1.37,0,2.42,.02,3.13,.02,.71,0,1.07,.02,1.07,.02Z" style="fill:#263238;"></path><path d="M675.79,290.91s-.12-.17-.31-.5c-.19-.33-.48-.82-.87-1.44-.78-1.23-1.99-2.98-3.75-4.91-1.76-1.92-4.08-4.03-7.02-5.83-.73-.46-1.53-.84-2.31-1.28-.82-.36-1.66-.75-2.53-1.09-1.76-.63-3.63-1.16-5.57-1.67-7.73-2.05-14.83-3.56-19.96-4.64-2.52-.52-4.58-.95-6.08-1.26-.67-.14-1.22-.26-1.65-.35-.38-.09-.57-.14-.57-.16,0-.02,.21,0,.59,.05,.44,.07,.99,.15,1.67,.26,1.45,.24,3.54,.6,6.12,1.1,5.15,.99,12.27,2.44,20.02,4.5,1.94,.51,3.82,1.05,5.62,1.7,.89,.35,1.73,.74,2.57,1.12,.8,.45,1.61,.84,2.34,1.32,2.97,1.85,5.3,4.02,7.04,5.99,1.74,1.98,2.92,3.78,3.65,5.05,.36,.64,.62,1.15,.79,1.5,.16,.35,.23,.54,.21,.55Z" style="fill:#263238;"></path><path d="M519.71,235.06s.22,.33,.62,.99c.41,.67,1.01,1.64,1.79,2.92,1.57,2.58,3.87,6.38,6.83,11.26,2.96,4.9,6.57,10.88,10.77,17.83,2.09,3.48,4.37,7.18,6.69,11.15,1.17,1.98,2.38,4.05,3.18,6.37,.8,2.32,1.28,4.81,1.24,7.41l-.06,.5c-.04,.16-.09,.32-.14,.47-.09,.31-.18,.63-.32,.93-.23,.61-.5,1.21-.79,1.8-.57,1.19-1.2,2.35-1.86,3.52-1.32,2.33-2.76,4.66-4.25,7.02-3,4.71-6.25,9.52-9.67,14.46-6.85,9.88-14.38,20.29-22.43,31.14-2.03,2.7-4.08,5.44-6.16,8.21-2.1,2.74-4.08,5.65-6.54,8.23-2.46,2.59-5.59,4.59-8.97,5.9-.84,.35-1.69,.66-2.56,.94-.86,.31-1.74,.55-2.62,.81-.87,.27-1.77,.48-2.65,.7-.88,.25-1.8,.39-2.72,.54-3.67,.47-7.36,.74-11.1,.99-3.73,.26-7.5,.46-11.29,.67-7.58,.4-15.28,.75-23.07,1.08-31.17,1.3-60.88,2.22-87.89,3.03-27.02,.74-51.35,1.4-71.78,1.96-20.43,.47-36.96,.85-48.4,1.12-5.71,.1-10.14,.19-13.16,.24-1.5,.02-2.64,.03-3.42,.04-.77,0-1.17-.02-1.17-.02,1.43-.04,25.4-.67,66.14-1.75,20.43-.59,44.76-1.29,71.78-2.07,27.01-.84,56.72-1.77,87.89-3.07,7.79-.33,15.48-.68,23.07-1.08,3.79-.21,7.55-.41,11.28-.67,3.73-.25,7.43-.52,11.06-.98,.9-.15,1.79-.27,2.67-.53,.88-.23,1.77-.43,2.64-.7,.87-.25,1.74-.5,2.59-.8,.86-.27,1.7-.59,2.53-.93,3.34-1.3,6.38-3.23,8.8-5.78,2.42-2.54,4.41-5.43,6.51-8.18,2.08-2.76,4.13-5.5,6.16-8.2,8.06-10.84,15.6-21.23,22.46-31.1,3.43-4.93,6.68-9.74,9.68-14.43,1.49-2.35,2.93-4.67,4.25-6.99,.66-1.16,1.29-2.32,1.85-3.49,.57-1.16,1.11-2.37,1.28-3.57,.04-2.51-.42-5-1.2-7.27-.78-2.29-1.97-4.33-3.14-6.32-2.32-3.98-4.59-7.68-6.66-11.17-4.17-6.96-7.76-12.96-10.69-17.87-2.92-4.9-5.19-8.71-6.74-11.31-.76-1.29-1.34-2.27-1.74-2.95-.39-.67-.58-1.01-.58-1.01Z" style="fill:#263238;"></path><path d="M582.1,272.32s-.04-.09-.11-.28c-.07-.18-.24-.44-.48-.75-.48-.63-1.32-1.46-2.49-2.47-2.34-2.02-6-4.76-10.89-8.02-4.89-3.26-11-7.06-18.28-11.15-7.28-4.07-15.73-8.47-25.41-12.54-1.2-.54-2.46-.94-3.72-1.42-1.27-.44-2.51-.99-3.84-1.33-2.63-.78-5.31-1.61-8.11-2.23-5.56-1.41-11.44-2.42-17.53-3.41-12.21-1.86-25.37-3.08-39.23-3.95-13.87-.85-28.45-1.31-43.57-1.46-15.1-.19-30.79,.74-46.53,3.78-15.73,3.06-30.66,8.12-44.26,14.7-13.58,6.64-26.02,14.31-37.75,21.75-5.86,3.73-11.53,7.45-17.03,11.06-2.76,1.8-5.47,3.58-8.18,5.28-.67,.43-1.37,.83-2.02,1.27l-1.91,1.36c-.57,.53-1.14,1.05-1.7,1.58-.53,.56-1,1.17-1.5,1.75-1.87,2.43-3.23,5.16-4.26,7.93-1.05,2.78-1.72,5.63-2.24,8.44-.53,2.81-.85,5.6-1.07,8.34-.23,2.74-.35,5.42-.42,8.05-.12,5.24,.17,10.25,.38,14.97,.23,4.73,.49,9.18,.75,13.35,.55,8.33,1.02,15.5,1.41,21.37,.41,5.86,.73,10.41,.95,13.5,.11,1.54,.19,2.71,.24,3.51,.05,.79,.07,1.2,.07,1.2,0,0-.05-.4-.12-1.19-.07-.8-.17-1.97-.3-3.51-.24-3.1-.59-7.64-1.05-13.5-.44-5.86-.96-13.04-1.5-21.37-.27-4.17-.54-8.62-.79-13.35-.22-4.73-.53-9.73-.42-15,.06-2.63,.17-5.32,.4-8.07,.21-2.75,.53-5.55,1.06-8.38,.52-2.83,1.19-5.7,2.24-8.51,1.04-2.8,2.41-5.58,4.31-8.05,.51-.59,.99-1.21,1.53-1.79,.58-.54,1.16-1.08,1.74-1.62,.65-.46,1.3-.93,1.95-1.39,.66-.45,1.34-.85,2.01-1.28,2.7-1.7,5.41-3.48,8.16-5.29,5.5-3.61,11.17-7.34,17.03-11.08,11.73-7.45,24.17-15.14,37.78-21.8,13.63-6.6,28.61-11.68,44.38-14.75,15.78-3.04,31.51-3.97,46.64-3.78,15.13,.16,29.71,.63,43.59,1.49,13.87,.89,27.04,2.12,39.27,4,6.1,1.01,11.99,2.03,17.56,3.45,2.81,.62,5.49,1.47,8.13,2.25,1.33,.35,2.59,.91,3.86,1.35,1.26,.48,2.53,.89,3.73,1.43,9.69,4.1,18.13,8.53,25.41,12.63,7.27,4.11,13.37,7.94,18.25,11.23,4.87,3.29,8.52,6.06,10.84,8.11,1.16,1.02,1.99,1.87,2.46,2.52,.49,.64,.55,1.06,.55,1.06Z" style="fill:#263238;"></path><path d="M399.57,381.95s-.02-.14-.05-.41c-.02-.3-.05-.7-.08-1.22-.07-1.07-.14-2.65-.23-4.68-.15-4.07-.34-9.96-.37-17.23,0-14.54,.18-34.73,3.39-56.74,.21-1.37,.38-2.75,.62-4.1,.26-1.35,.52-2.69,.78-4.02,.27-1.33,.49-2.65,.78-3.95,.33-1.29,.65-2.58,.98-3.85,.34-1.27,.61-2.54,1-3.77,.41-1.22,.82-2.43,1.22-3.63,.41-1.19,.8-2.39,1.21-3.54,.4-1.16,.84-2.29,1.15-3.45,1.4-4.59,2.37-9.06,3.18-13.25,.82-4.19,1.46-8.13,2-11.72,1.07-7.19,1.75-13.04,2.2-17.09,.22-2,.38-3.57,.5-4.66l.13-1.21c.03-.27,.05-.41,.06-.41,0,0,0,.14,0,.42-.02,.3-.05,.7-.08,1.22-.08,1.07-.21,2.64-.4,4.67-.39,4.05-1.01,9.91-2.04,17.12-.52,3.6-1.13,7.54-1.94,11.75-.79,4.21-1.75,8.69-3.14,13.31-.31,1.17-.75,2.31-1.15,3.48-.42,1.17-.79,2.34-1.2,3.53-.4,1.19-.8,2.39-1.21,3.61-.39,1.22-.65,2.49-.99,3.75-.32,1.27-.64,2.54-.97,3.83-.29,1.3-.51,2.62-.78,3.94-.26,1.33-.51,2.66-.77,4-.24,1.35-.41,2.72-.62,4.09-3.2,21.96-3.44,42.13-3.53,56.66-.02,7.27,.12,13.16,.21,17.23,.06,2.01,.1,3.59,.13,4.68l.03,1.22c0,.27,0,.42,0,.42Z" style="fill:#263238;"></path><path d="M512.21,236.5s12,19.13,11.55,21.62c-.45,2.49-.91,16.76-.91,16.76h20.65l-20.62-34.55" style="fill:#263238;"></path><path d="M418.05,228.08c.14,.03-1.97,11.1-4.71,24.73-2.74,13.64-5.08,24.66-5.22,24.63-.14-.03,1.97-11.1,4.71-24.74,2.74-13.63,5.08-24.66,5.22-24.63Z" style="fill:#455a64;"></path><path d="M294.38,264.46s18.15-15.33,61.16-26.98c23.82-6.46,48.3-5.34,48.3-5.34l-2.12,8.28s-10.82-1.72-14.26,4.81c-3.43,6.53,4.81,21.98,4.81,21.98,0,0-1.72,8.24-3.09,8.24s-75.64,1.91-75.64,1.91c0,0-3.08-9.46-9.18-12.52-3.62-1.81-9.98-.39-9.98-.39Z" style="fill:#fff; opacity:.3;"></path><path d="M424.27,273.81c0-.22,5.61-40.78,6.08-40.56,.47,.22,48.2-1.08,78.14,6.9l9.36,15.53s-3.28,18.77-3.98,18.12-89.61,0-89.61,0Z" style="fill:#fff; opacity:.3;"></path><g><path d="M103.44,376.22c-.4,27.8,21.81,50.67,49.61,51.07,27.8,.4,50.67-21.81,51.07-49.61,.4-27.8-21.81-50.67-49.62-51.07-27.8-.4-50.67,21.81-51.07,49.61Z" style="fill:#263238;"></path><path d="M103.45,376.09s0,.09,0,.13c-.4,27.8,21.81,50.67,49.61,51.07,27.8,.4,50.67-21.81,51.07-49.61,0-.04,0-.09,0-.13l-100.67-1.45Z" style="fill:#263238;"></path><path d="M118.44,376.44c-.28,19.52,15.31,35.57,34.83,35.85,19.52,.28,35.57-15.31,35.85-34.83,.28-19.52-15.31-35.57-34.83-35.85-19.52-.28-35.57,15.31-35.85,34.83Z" style="fill:#fafafa;"></path><path d="M154.29,341.6c-19.52-.28-35.57,15.31-35.85,34.83l70.69,1.02c.28-19.52-15.31-35.57-34.83-35.85Z" style="fill:#e0e0e0;"></path><path d="M132.25,376.64c-.17,11.89,9.33,21.67,21.22,21.84,11.89,.17,21.67-9.33,21.84-21.22,.17-11.89-9.33-21.67-21.22-21.84s-21.67,9.33-21.84,21.22Z" style="fill:#263238;"></path></g><g><path d="M518.11,376.78c-.42,28.83,22.61,52.53,51.44,52.95,28.83,.42,52.53-22.61,52.95-51.44,.42-28.83-22.61-52.53-51.44-52.95-28.83-.42-52.53,22.61-52.95,51.44Z" style="fill:#263238;"></path><path d="M518.12,376.65s0,.09,0,.13c-.42,28.83,22.61,52.53,51.44,52.95,28.83,.42,52.53-22.61,52.95-51.44,0-.05,0-.09,0-.13l-104.37-1.51Z" style="fill:#263238;"></path><path d="M533.66,377c-.29,20.24,15.88,36.88,36.11,37.17,20.24,.29,36.88-15.88,37.17-36.11,.29-20.24-15.88-36.88-36.11-37.17-20.24-.29-36.88,15.88-37.17,36.11Z" style="fill:#fafafa;"></path><path d="M570.83,340.89c-20.24-.29-36.88,15.88-37.17,36.11l73.29,1.06c.29-20.24-15.88-36.88-36.11-37.17Z" style="fill:#e0e0e0;"></path><path d="M547.98,377.21c-.18,12.33,9.67,22.47,22,22.64,12.33,.18,22.47-9.67,22.64-22,.18-12.33-9.67-22.47-22-22.64-12.33-.18-22.46,9.67-22.64,22Z" style="fill:#263238;"></path></g><path d="M654.49,290.91s-1.31,2.09,0,3.39c1.31,1.31,11.1,15.4,17.36,15.79,6.27,.39,21.38,0,21.38,0l-1.2-19.19h-37.54Z" style="fill:#fff;"></path><path d="M701.07,363.07l-45.67,6.28s-.67,3.33,4.49,3.99c5.16,.67,35.89-4.69,35.89-4.69l5.29-5.58Z" style="opacity:.3;"></path><path d="M220.34,381.95c1.13-.24,15.21-8.4,32.12-8.54,16.9-.14,246.57-12.37,244.88-10.64-1.69,1.73-7.78,8.3-20.05,10.64-16.36,3.12-256.94,8.54-256.94,8.54Z" style="opacity:.3;"></path><polygon points="287.18 262.77 298.03 280.64 258.36 280.64 287.18 262.77" style="fill:#263238;"></polygon><g><path d="M273.97,274.18c-2.68,2.53-3.47,6.79,0,9.48,3.47,2.68,27.01,2.84,29.85,0,2.84-2.84,2.38-8.37-1.74-12.95-2.62-2.92-10.74-6.16-14.21-5.84s-11.2,6.78-13.9,9.32Z" style="fill:#407BFF;"></path><path d="M273.97,274.18s.04-.07,.15-.17c.13-.13,.29-.28,.48-.47,.43-.4,1.06-1,1.91-1.73,1.71-1.44,4.16-3.57,7.61-5.64,.87-.5,1.8-1.01,2.88-1.33,1.11-.36,2.3-.18,3.46,.02,2.33,.45,4.72,1.32,7.12,2.48,1.19,.59,2.39,1.26,3.5,2.12,1.13,.86,2.03,2.02,2.83,3.23,.78,1.23,1.4,2.61,1.74,4.09,.33,1.48,.36,3.08-.14,4.59-.23,.76-.64,1.45-1.13,2.06-.13,.15-.25,.3-.39,.44-.17,.13-.33,.28-.51,.36-.35,.2-.71,.34-1.07,.46-1.45,.47-2.91,.67-4.34,.85-2.87,.33-5.65,.43-8.3,.43-2.65,0-5.16-.1-7.51-.3-2.34-.21-4.53-.49-6.48-1.03-.49-.14-.96-.31-1.4-.53-.46-.22-.8-.56-1.14-.87-.65-.65-1.13-1.41-1.4-2.18-.56-1.56-.28-3.02,.12-4.06,.42-1.06,.96-1.77,1.36-2.2,.19-.23,.37-.37,.47-.48,.11-.1,.17-.15,.18-.14,.02,.02-.2,.23-.57,.69-.37,.45-.87,1.16-1.25,2.2-.36,1.02-.59,2.43-.03,3.89,.55,1.42,1.8,2.92,3.76,3.32,1.9,.51,4.08,.77,6.41,.96,2.33,.18,4.84,.27,7.47,.25,2.63-.02,5.4-.13,8.24-.46,1.41-.18,2.86-.39,4.24-.84,.34-.11,.68-.24,.98-.42,.16-.07,.27-.19,.41-.29,.12-.12,.24-.27,.36-.4,.45-.56,.83-1.19,1.04-1.89,.46-1.39,.44-2.91,.12-4.31-.32-1.41-.92-2.74-1.67-3.93-.77-1.18-1.63-2.29-2.7-3.11-1.07-.83-2.24-1.5-3.41-2.08-2.35-1.15-4.71-2.03-6.98-2.48-1.13-.2-2.27-.37-3.27-.06-1.02,.29-1.95,.78-2.81,1.26-3.43,2-5.92,4.09-7.66,5.47-.83,.69-1.48,1.24-1.97,1.65-.45,.38-.68,.58-.7,.57Z" style="fill:#263238;"></path></g><path d="M39.14,324s6.76-8.7,16.86-12.84c10.09-4.14,69.46-17.52,112.97-21.8,41.59-4.09,67.97-5.52,67.97-5.52l8.11,1.89s-118.39,16.95-145.26,21.94c-20.09,3.73-62.06,25.71-62.06,25.71l1-2.69,.42-6.7Z" style="opacity:.3;"></path><path d="M57.65,312.03c-4.46,2.45-8.02,6.33-9.66,10.31-1.83,4.44-1.44,7.57-.13,7.83,1.31,.26,25.19,1.44,29.37-.91,4.18-2.35,20.75-21.15,20.75-21.15,0,0-32.51-.38-40.33,3.92Z" style="fill:#fff;"></path><path d="M618.91,343.28s.29-.1,.86-.24c.61-.15,1.44-.34,2.48-.59,2.15-.5,5.27-1.21,9.14-2.05,7.73-1.69,18.42-3.91,30.3-6.04,11.88-2.12,22.7-3.69,30.56-4.63,3.93-.47,7.11-.82,9.31-1.02,1.07-.09,1.91-.17,2.54-.22,.58-.05,.89-.06,.89-.04,0,.02-.3,.07-.88,.15-.62,.08-1.46,.19-2.53,.32-2.19,.26-5.37,.66-9.29,1.18-7.84,1.04-18.64,2.66-30.51,4.78-11.87,2.13-22.57,4.3-30.32,5.89-3.84,.79-6.96,1.43-9.17,1.89-1.05,.21-1.88,.37-2.5,.5-.57,.11-.87,.16-.88,.14Z" style="fill:#263238;"></path><path d="M693.24,311.17c-.07,0-.13-1.14-.22-2.97-.1-2-.22-4.45-.35-7.16-.16-2.71-.3-5.16-.41-7.16-.07-.91-.12-1.65-.17-2.16-.04-.51-.1-.78-.05-.8,.08-.03,.39,1.1,.59,2.93,.22,1.83,.42,4.36,.56,7.17,.14,2.8,.2,5.34,.2,7.18,0,1.84-.08,2.98-.14,2.98Z" style="fill:#263238;"></path></g></g></svg>
