<?xml version="1.0" encoding="utf-8" ?>
<svg xmlns="http://www.w3.org/2000/svg" xmlns:xlink="http://www.w3.org/1999/xlink" width="400" height="300" viewBox="0 0 400 300">
	<defs>
		<clipPath id="clipPath3775994012">
			<path d="M0 0L160 0L160 160L0 160L0 0Z" fill-rule="nonzero" transform="matrix(1 0 0 1 120 70)"/>
		</clipPath>
	</defs>
	<g clip-path="url(#clipPath3775994012)">
		<defs>
			<clipPath id="clipPath0150137516">
				<path d="M0 0L160 0L160 160L0 160L0 0Z" fill-rule="nonzero" transform="matrix(1 0 0 1 120 70)"/>
			</clipPath>
		</defs>
		<g clip-path="url(#clipPath0150137516)">
			<path d="M113.333 53.3337L126.667 53.3337L126.667 38.9811L92.2373 33.243Q91.9238 33.1907 91.6168 33.1089Q91.3097 33.0271 91.0118 32.9164Q90.7139 32.8057 90.4278 32.6672Q90.1418 32.5287 89.8702 32.3636Q89.5987 32.1985 89.3441 32.0084Q89.0894 31.8182 88.854 31.6047Q88.6187 31.3912 88.4047 31.1562Q88.1907 30.9213 88 30.667L70 6.66702L21.6 6.66702Q19.6528 6.65362 18.0309 7.64481Q16.4089 8.636 15.5536 10.3335L10.2514 21.1376Q8.47282 24.6739 7.57181 28.4609Q6.6708 32.248 6.66666 36.1408L6.66667 53.3337L13.3333 53.3337C17.0152 53.3337 20 56.3185 20 60.0003C20 63.6822 17.0152 66.667 13.3333 66.667L0 66.667Q-0.163657 66.667 -0.327118 66.659Q-0.490578 66.651 -0.653448 66.6349Q-0.816317 66.6189 -0.978203 66.5948Q-1.14009 66.5708 -1.3006 66.5389Q-1.46111 66.507 -1.61987 66.4672Q-1.77862 66.4275 -1.93523 66.3799Q-2.09184 66.3324 -2.24593 66.2773Q-2.40002 66.2222 -2.55122 66.1595Q-2.70242 66.0969 -2.85037 66.0269Q-2.99831 65.957 -3.14264 65.8798Q-3.28698 65.8027 -3.42735 65.7185Q-3.56773 65.6344 -3.7038 65.5435Q-3.83988 65.4525 -3.97133 65.3551Q-4.10278 65.2576 -4.22929 65.1537Q-4.3558 65.0499 -4.47706 64.94Q-4.59832 64.8301 -4.71405 64.7144Q-4.82977 64.5987 -4.93967 64.4774Q-5.04958 64.3561 -5.1534 64.2296Q-5.25723 64.1031 -5.35472 63.9717Q-5.45221 63.8402 -5.54313 63.7041Q-5.63405 63.5681 -5.71819 63.4277Q-5.80233 63.2873 -5.87947 63.143Q-5.95662 62.9987 -6.02659 62.8507Q-6.09657 62.7028 -6.1592 62.5516Q-6.22183 62.4004 -6.27696 62.2463Q-6.33209 62.0922 -6.3796 61.9356Q-6.42711 61.779 -6.46688 61.6202Q-6.50664 61.4615 -6.53857 61.3009Q-6.5705 61.1404 -6.59451 60.9785Q-6.61852 60.8167 -6.63456 60.6538Q-6.65061 60.4909 -6.65864 60.3275Q-6.66667 60.164 -6.66667 60.0003L-6.66666 36.1266Q-6.66087 30.6767 -5.39946 25.3748Q-4.13804 20.0729 -1.71805 15.2631L3.64639 4.33385Q6.21237 -0.75871 11.0782 -3.73228Q15.944 -6.70585 21.6 -6.66632L70 -6.66632Q73.1476 -6.66632 75.9628 -5.25868Q78.7781 -3.85104 80.6667 -1.33298L97.064 20.5302L128.8 25.8196Q131.188 26.2066 133.228 27.3584Q135.268 28.5103 136.833 30.3548Q138.398 32.1992 139.203 34.3999Q140.007 36.6006 140 39.0004L140 60.0003Q140 60.164 139.992 60.3275Q139.984 60.4909 139.968 60.6538Q139.952 60.8167 139.928 60.9785Q139.904 61.1404 139.872 61.3009Q139.84 61.4615 139.8 61.6202Q139.76 61.779 139.713 61.9356Q139.665 62.0922 139.61 62.2463Q139.555 62.4004 139.493 62.5516Q139.43 62.7028 139.36 62.8507Q139.29 62.9987 139.213 63.143Q139.136 63.2873 139.052 63.4277Q138.967 63.5681 138.876 63.7041Q138.786 63.8402 138.688 63.9717Q138.591 64.1031 138.487 64.2296Q138.383 64.3561 138.273 64.4774Q138.163 64.5987 138.047 64.7144Q137.932 64.8301 137.81 64.94Q137.689 65.0499 137.563 65.1537Q137.436 65.2576 137.305 65.3551Q137.173 65.4525 137.037 65.5435Q136.901 65.6344 136.761 65.7185Q136.62 65.8027 136.476 65.8798Q136.332 65.957 136.184 66.0269Q136.036 66.0969 135.885 66.1595Q135.733 66.2222 135.579 66.2773Q135.425 66.3324 135.269 66.3799Q135.112 66.4275 134.953 66.4672Q134.794 66.507 134.634 66.5389Q134.473 66.5708 134.312 66.5948Q134.15 66.6189 133.987 66.6349Q133.824 66.651 133.66 66.659Q133.497 66.667 133.333 66.667L113.333 66.667C109.651 66.667 106.667 63.6822 106.667 60.0003C106.667 56.3185 109.651 53.3337 113.333 53.3337ZM46.6667 66.667C42.9848 66.667 40 63.6822 40 60.0003C40 56.3185 42.9848 53.3337 46.6667 53.3337L80 53.3337C83.6819 53.3337 86.6667 56.3185 86.6667 60.0003C86.6667 63.6822 83.6819 66.667 80 66.667L46.6667 66.667Z" fill-rule="evenodd" transform="matrix(1 0 0 1 133.333 116.666)" fill="rgb(24, 24, 27)" fill-opacity="0.2"/>
			<path d="M16.6667 -6.66667Q21.4094 -6.66667 25.7511 -4.83028Q29.9396 -3.05868 33.1658 0.167508Q36.392 3.39369 38.1636 7.58223Q40 11.9239 40 16.6667Q40 21.4094 38.1636 25.7511Q36.392 29.9396 33.1658 33.1658Q29.9396 36.392 25.7511 38.1636Q21.4094 40 16.6667 40Q11.9239 40 7.58223 38.1636Q3.3937 36.392 0.167509 33.1658Q-3.05868 29.9396 -4.83028 25.7511Q-6.66667 21.4094 -6.66667 16.6667Q-6.66667 11.9239 -4.83028 7.58223Q-3.05868 3.39369 0.167508 0.167509Q3.39369 -3.05868 7.58223 -4.83028Q11.9239 -6.66667 16.6667 -6.66667ZM16.6667 6.66667Q14.6277 6.66667 12.7763 7.44978Q10.9829 8.20831 9.5956 9.5956Q8.20831 10.9829 7.44978 12.7763Q6.66667 14.6277 6.66667 16.6667Q6.66667 18.7056 7.44978 20.5571Q8.20831 22.3504 9.5956 23.7377Q10.9829 25.125 12.7763 25.8836Q14.6277 26.6667 16.6667 26.6667Q18.7056 26.6667 20.5571 25.8836Q22.3504 25.125 23.7377 23.7377Q25.125 22.3504 25.8836 20.5571Q26.6667 18.7056 26.6667 16.6667Q26.6667 14.6277 25.8836 12.7763Q25.125 10.9829 23.7377 9.5956Q22.3504 8.20831 20.5571 7.44978Q18.7056 6.66667 16.6667 6.66667Z" fill-rule="nonzero" transform="matrix(1 0 0 1 146.667 163.333)" fill="rgb(24, 24, 27)" fill-opacity="0.2"/>
			<path d="M16.6667 -6.66667Q21.4094 -6.66667 25.7511 -4.83028Q29.9396 -3.05868 33.1658 0.167508Q36.392 3.39369 38.1636 7.58223Q40 11.9239 40 16.6667Q40 21.4094 38.1636 25.7511Q36.392 29.9396 33.1658 33.1658Q29.9396 36.392 25.7511 38.1636Q21.4094 40 16.6667 40Q11.9239 40 7.58223 38.1636Q3.3937 36.392 0.167509 33.1658Q-3.05868 29.9396 -4.83028 25.7511Q-6.66667 21.4094 -6.66667 16.6667Q-6.66667 11.9239 -4.83028 7.58223Q-3.05868 3.39369 0.167508 0.167509Q3.39369 -3.05868 7.58223 -4.83028Q11.9239 -6.66667 16.6667 -6.66667ZM16.6667 6.66667Q14.6277 6.66667 12.7763 7.44978Q10.9829 8.20831 9.5956 9.5956Q8.20831 10.9829 7.44978 12.7763Q6.66667 14.6277 6.66667 16.6667Q6.66667 18.7056 7.44978 20.5571Q8.20831 22.3504 9.5956 23.7377Q10.9829 25.125 12.7763 25.8836Q14.6277 26.6667 16.6667 26.6667Q18.7056 26.6667 20.5571 25.8836Q22.3504 25.125 23.7377 23.7377Q25.125 22.3504 25.8836 20.5571Q26.6667 18.7056 26.6667 16.6667Q26.6667 14.6277 25.8836 12.7763Q25.125 10.9829 23.7377 9.5956Q22.3504 8.20831 20.5571 7.44978Q18.7056 6.66667 16.6667 6.66667Z" fill-rule="nonzero" transform="matrix(1 0 0 1 213.333 163.333)" fill="rgb(24, 24, 27)" fill-opacity="0.2"/>
		</g>
	</g>
	<defs>
		<clipPath id="clipPath6287191817">
			<path d="M0 0L48 0L48 48L0 48L0 0Z" fill-rule="nonzero" transform="matrix(1 0 0 1 256 48)"/>
		</clipPath>
	</defs>
	<g clip-path="url(#clipPath6287191817)">
		<defs>
			<clipPath id="clipPath1750482009">
				<path d="M0 0L48 0L48 48L0 48L0 0Z" fill-rule="nonzero" transform="matrix(1 0 0 1 256 48)"/>
			</clipPath>
		</defs>
		<g clip-path="url(#clipPath1750482009)">
			<path d="M21.7934 -0.885248L27.9734 11.6348L26.18 12.52L26.4693 10.541L40.2893 12.561Q40.3865 12.5752 40.4818 12.5989Q40.5772 12.6226 40.6698 12.6555Q40.7624 12.6884 40.8513 12.7302Q40.9402 12.772 41.0246 12.8224Q41.1089 12.8727 41.188 12.9311Q41.267 12.9894 41.34 13.0552Q41.4129 13.1211 41.479 13.1937Q41.5452 13.2664 41.6039 13.3452Q41.6626 13.424 41.7133 13.5082Q41.764 13.5923 41.8062 13.681Q41.8484 13.7698 41.8817 13.8622Q41.9149 13.9547 41.939 14.0499Q41.9631 14.1452 41.9777 14.2423Q41.9923 14.3395 41.9974 14.4376Q42.0024 14.5357 41.9978 14.6339Q41.9932 14.732 41.979 14.8293Q41.9313 15.1554 41.7815 15.4491Q41.6316 15.7427 41.3955 15.9727L31.3955 25.7127L30 24.28L31.9712 23.9419L34.3312 37.7019Q34.3478 37.7988 34.3549 37.8968Q34.3619 37.9948 34.3593 38.093Q34.3567 38.1912 34.3445 38.2887Q34.3323 38.3862 34.3105 38.482Q34.2888 38.5778 34.2578 38.6711Q34.2268 38.7643 34.1868 38.854Q34.1468 38.9438 34.0983 39.0292Q34.0497 39.1146 33.9929 39.1948Q33.9362 39.275 33.8719 39.3493Q33.8075 39.4236 33.7363 39.4912Q33.665 39.5588 33.5874 39.6191Q33.5098 39.6794 33.4267 39.7318Q33.3436 39.7842 33.2557 39.8282Q33.1679 39.8722 33.0762 39.9074Q32.9844 39.9426 32.8897 39.9686Q32.7949 39.9946 32.6981 40.0112Q32.3729 40.067 32.047 40.0154Q31.7211 39.9637 31.4291 39.8101L19.0691 33.3101L20 31.54L20.9309 33.3101L8.5709 39.8101Q8.48394 39.8559 8.39292 39.8929Q8.30189 39.9299 8.20768 39.9577Q8.11346 39.9856 8.01697 40.0042Q7.92048 40.0227 7.82264 40.0316Q7.72479 40.0406 7.62654 40.04Q7.52829 40.0393 7.43058 40.029Q7.33286 40.0187 7.23663 39.9989Q7.14039 39.9791 7.04656 39.9499Q6.95274 39.9208 6.86222 39.8826Q6.7717 39.8444 6.68536 39.7975Q6.59902 39.7506 6.51769 39.6954Q6.43637 39.6403 6.36084 39.5774Q6.28531 39.5146 6.2163 39.4447Q6.1473 39.3747 6.08548 39.2984Q6.02366 39.222 5.96962 39.1399Q5.91559 39.0579 5.86985 38.9709Q5.71628 38.6789 5.66464 38.353Q5.61301 38.0271 5.66878 37.7019L8.02878 23.9419L10 24.28L8.60453 25.7127L-1.39547 15.9727Q-1.46585 15.9042 -1.52918 15.829Q-1.5925 15.7539 -1.64816 15.6729Q-1.70382 15.592 -1.75127 15.5059Q-1.79873 15.4199 -1.83752 15.3296Q-1.87631 15.2394 -1.90607 15.1457Q-1.93583 15.0521 -1.95626 14.956Q-1.9767 14.8599 -1.98761 14.7622Q-1.99853 14.6646 -1.99983 14.5663Q-2.00112 14.4681 -1.99278 14.3702Q-1.98444 14.2723 -1.96654 14.1757Q-1.94864 14.0791 -1.92136 13.9847Q-1.89408 13.8903 -1.85768 13.799Q-1.82128 13.7078 -1.77611 13.6205Q-1.73093 13.5333 -1.67743 13.4509Q-1.62392 13.3685 -1.5626 13.2917Q-1.50127 13.2149 -1.43272 13.1445Q-1.20271 12.9084 -0.909075 12.7585Q-0.615444 12.6087 -0.289257 12.561L13.5307 10.541L13.82 12.52L12.0266 11.6348L18.2066 -0.885248Q18.2501 -0.973353 18.302 -1.05677Q18.3539 -1.14019 18.4137 -1.21812Q18.4736 -1.29604 18.5408 -1.36773Q18.608 -1.43942 18.6819 -1.50417Q18.7558 -1.56893 18.8357 -1.62613Q18.9155 -1.68333 19.0006 -1.73242Q19.0858 -1.78152 19.1753 -1.82204Q19.2648 -1.86255 19.3578 -1.8941Q19.4509 -1.92565 19.5466 -1.94792Q19.6423 -1.9702 19.7397 -1.98299Q19.8371 -1.99578 19.9353 -1.99895Q20.0335 -2.00213 20.1315 -1.99567Q20.2296 -1.98921 20.3265 -1.97316Q20.4235 -1.95712 20.5184 -1.93166Q20.6133 -1.90619 20.7052 -1.87155Q20.7971 -1.8369 20.8852 -1.79341Q21.181 -1.64743 21.4142 -1.41421Q21.6474 -1.181 21.7934 -0.885248L21.7934 -0.885248ZM18.2066 0.885248L20 0L21.7934 0.885248L15.6134 13.4052Q15.5059 13.6231 15.3493 13.8089Q15.1927 13.9947 14.9962 14.1376Q14.7997 14.2805 14.5747 14.3722Q14.3497 14.4638 14.1093 14.499L0.289256 16.519L0 14.54L1.39547 13.1073L11.3955 22.8473Q11.5698 23.017 11.6983 23.2236Q11.8268 23.4302 11.902 23.6616Q11.9772 23.893 11.9948 24.1356Q12.0123 24.3783 11.9712 24.6181L9.61122 38.3781L7.64 38.04L6.7091 36.2699L19.0691 29.7699Q19.2844 29.6566 19.5206 29.5983Q19.7567 29.54 20 29.54Q20.2433 29.54 20.4794 29.5983Q20.7156 29.6566 20.9309 29.7699L33.2909 36.2699L32.36 38.04L30.3888 38.3781L28.0288 24.6181Q27.9877 24.3783 28.0052 24.1356Q28.0228 23.893 28.098 23.6616Q28.1732 23.4302 28.3017 23.2236Q28.4302 23.017 28.6045 22.8473L38.6045 13.1073L40 14.54L39.7107 16.519L25.8907 14.499Q25.6503 14.4638 25.4253 14.3722Q25.2003 14.2805 25.0038 14.1376Q24.8073 13.9947 24.6507 13.8089Q24.4941 13.6231 24.3866 13.4052L18.2066 0.885248Z" fill-rule="nonzero" transform="matrix(1 0 0 1 260 52)" fill="rgb(24, 24, 27)" fill-opacity="0.4"/>
		</g>
	</g>
	<defs>
		<clipPath id="clipPath1095589048">
			<path d="M0 0L32 0L32 32L0 32L0 0Z" fill-rule="nonzero" transform="matrix(1 0 0 1 96 220)"/>
		</clipPath>
	</defs>
	<g clip-path="url(#clipPath1095589048)">
		<defs>
			<clipPath id="clipPath6836441880">
				<path d="M0 0L32 0L32 32L0 32L0 0Z" fill-rule="nonzero" transform="matrix(1 0 0 1 96 220)"/>
			</clipPath>
		</defs>
		<g clip-path="url(#clipPath6836441880)">
			<path d="M14.5289 -0.590165L18.6489 7.7565L17.4533 8.34667L17.6462 7.02735L26.8595 8.37402Q26.9243 8.38349 26.9879 8.39927Q27.0515 8.41505 27.1132 8.43699Q27.1749 8.45893 27.2342 8.48681Q27.2934 8.51469 27.3497 8.54824Q27.406 8.5818 27.4587 8.6207Q27.5113 8.65961 27.56 8.7035Q27.6086 8.74739 27.6527 8.79583Q27.6968 8.84427 27.7359 8.89679Q27.7751 8.94932 27.8088 9.00544Q27.8426 9.06155 27.8708 9.1207Q27.8989 9.17986 27.9211 9.24148Q27.9433 9.30311 27.9593 9.36661Q27.9754 9.43012 27.9851 9.49489Q27.9949 9.55966 27.9983 9.62508Q28.0016 9.6905 27.9985 9.75593Q27.9955 9.82136 27.986 9.88617Q27.9542 10.1036 27.8543 10.2994Q27.7544 10.4951 27.597 10.6485L20.9303 17.1418L20 16.1867L21.3141 15.9613L22.8875 25.1346Q22.8986 25.1992 22.9032 25.2645Q22.9079 25.3298 22.9062 25.3953Q22.9045 25.4608 22.8963 25.5258Q22.8882 25.5908 22.8737 25.6547Q22.8592 25.7185 22.8386 25.7807Q22.8179 25.8429 22.7912 25.9027Q22.7646 25.9625 22.7322 26.0195Q22.6998 26.0764 22.6619 26.1299Q22.6241 26.1833 22.5812 26.2329Q22.5384 26.2824 22.4908 26.3274Q22.4433 26.3725 22.3916 26.4127Q22.3399 26.4529 22.2845 26.4879Q22.2291 26.5228 22.1705 26.5521Q22.1119 26.5815 22.0508 26.6049Q21.9896 26.6284 21.9264 26.6457Q21.8633 26.6631 21.7987 26.6741Q21.5819 26.7113 21.3647 26.6769Q21.1474 26.6425 20.9527 26.5401L12.7127 22.2068L13.3333 21.0267L13.9539 22.2068L5.71394 26.5401Q5.65596 26.5706 5.59528 26.5952Q5.53459 26.6199 5.47178 26.6385Q5.40898 26.6571 5.34465 26.6694Q5.28032 26.6818 5.21509 26.6878Q5.14986 26.6937 5.08436 26.6933Q5.01886 26.6929 4.95372 26.686Q4.88858 26.6791 4.82442 26.6659Q4.76026 26.6527 4.69771 26.6333Q4.63516 26.6139 4.57481 26.5884Q4.51446 26.5629 4.45691 26.5316Q4.39935 26.5004 4.34513 26.4636Q4.29091 26.4269 4.24056 26.385Q4.19021 26.3431 4.1442 26.2964Q4.0982 26.2498 4.05698 26.1989Q4.01577 26.148 3.97975 26.0933Q3.94372 26.0386 3.91324 25.9806Q3.81085 25.7859 3.77643 25.5687Q3.74201 25.3514 3.77919 25.1346L5.35252 15.9613L6.66667 16.1867L5.73636 17.1418L-0.93031 10.6485Q-0.977234 10.6028 -1.01945 10.5527Q-1.06167 10.5026 -1.09877 10.4486Q-1.13588 10.3947 -1.16752 10.3373Q-1.19915 10.2799 -1.22501 10.2198Q-1.25087 10.1596 -1.27071 10.0972Q-1.29055 10.0347 -1.30417 9.97065Q-1.3178 9.90658 -1.32508 9.84149Q-1.33236 9.77639 -1.33322 9.71089Q-1.33408 9.6454 -1.32852 9.58013Q-1.32296 9.51487 -1.31103 9.45046Q-1.29909 9.38605 -1.28091 9.32312Q-1.26272 9.2602 -1.23845 9.19936Q-1.21418 9.13852 -1.18407 9.08035Q-1.15396 9.02218 -1.11829 8.96724Q-1.08262 8.9123 -1.04173 8.86112Q-1.00085 8.80995 -0.955144 8.76302Q-0.801804 8.60559 -0.60605 8.5057Q-0.410296 8.4058 -0.192838 8.37402L9.0205 7.02735L9.21333 8.34667L8.01772 7.7565L12.1377 -0.590165Q12.1667 -0.648902 12.2013 -0.704514Q12.2359 -0.760126 12.2758 -0.812077Q12.3157 -0.864029 12.3605 -0.91182Q12.4053 -0.959611 12.4546 -1.00278Q12.5038 -1.04595 12.5571 -1.08409Q12.6104 -1.12222 12.6671 -1.15495Q12.7238 -1.18768 12.7835 -1.21469Q12.8432 -1.2417 12.9052 -1.26273Q12.9673 -1.28377 13.031 -1.29862Q13.0948 -1.31347 13.1598 -1.32199Q13.2247 -1.33052 13.2902 -1.33264Q13.3557 -1.33475 13.421 -1.33045Q13.4864 -1.32614 13.551 -1.31544Q13.6156 -1.30475 13.6789 -1.28777Q13.7422 -1.2708 13.8035 -1.2477Q13.8648 -1.2246 13.9235 -1.19561Q14.1207 -1.09829 14.2761 -0.942809Q14.4316 -0.787332 14.5289 -0.590165ZM12.1377 0.590165L13.3333 0L14.5289 0.590165L10.4089 8.93683Q10.3372 9.08208 10.2329 9.20594Q10.1285 9.32979 9.99746 9.42505Q9.86646 9.52031 9.71645 9.58143Q9.56645 9.64256 9.40617 9.66598L0.192838 11.0126L0 9.69333L0.93031 8.73819L7.59698 15.2315Q7.71317 15.3447 7.79884 15.4824Q7.88451 15.6201 7.93466 15.7744Q7.98481 15.9286 7.99652 16.0904Q8.00823 16.2522 7.98081 16.4121L6.40748 25.5854L5.09333 25.36L4.47273 24.1799L12.7127 19.8466Q12.8563 19.7711 13.0137 19.7322Q13.1712 19.6933 13.3333 19.6933Q13.4955 19.6933 13.653 19.7322Q13.8104 19.7711 13.9539 19.8466L22.1939 24.1799L21.5733 25.36L20.2592 25.5854L18.6859 16.4121Q18.6584 16.2522 18.6701 16.0904Q18.6819 15.9286 18.732 15.7744Q18.7822 15.6201 18.8678 15.4824Q18.9535 15.3447 19.0697 15.2315L25.7364 8.73819L26.6667 9.69333L26.4738 11.0126L17.2605 9.66598Q17.1002 9.64256 16.9502 9.58143Q16.8002 9.52031 16.6692 9.42505Q16.5382 9.32979 16.4338 9.20594Q16.3294 9.08208 16.2577 8.93683L12.1377 0.590165Z" fill-rule="nonzero" transform="matrix(1 0 0 1 98.6667 222.667)" fill="rgb(24, 24, 27)" fill-opacity="0.302"/>
		</g>
	</g>
</svg>
